<svg xmlns="http://www.w3.org/2000/svg" width="1024" height="1024" viewBox="0 0 1024 1024">
<g>
<path d="M 701.69 648.25 L 701.50 721.00 L 662.80 721.00 L 624.09 721.00 L 623.72 645.25 C623.39,579.62 623.13,568.62 621.72,562.91 C616.69,542.49 607.18,530.15 592.36,524.82 C584.31,521.92 568.14,521.26 558.03,523.40 C542.01,526.80 525.08,537.16 506.50,554.93 C493.36,567.51 490.95,568.88 495.84,561.02 C511.40,536.03 530.19,512.30 544.00,500.20 C570.10,477.34 589.74,468.46 622.27,464.83 C636.10,463.29 636.20,463.30 644.50,467.40 C653.55,471.87 661.74,477.86 671.47,487.11 L 678.99 494.25 L 686.13 487.52 C701.53,472.98 724.23,461.41 747.14,456.41 C751.19,455.53 760.85,454.56 768.61,454.27 C822.43,452.23 864.02,479.35 879.01,526.27 C885.41,546.32 885.29,544.34 885.72,636.75 L 886.10 721.00 L 809.00 721.00 L 808.95 659.25 C808.88,583.23 808.19,566.61 804.61,555.42 C799.80,540.39 790.49,529.64 778.17,524.90 C770.11,521.80 752.65,521.09 742.72,523.48 C727.56,527.11 715.76,536.82 709.06,551.15 C701.91,566.46 701.90,566.58 701.69,648.25 ZM 516.91 568.50 L 517.00 721.00 L 478.67 721.00 C457.58,721.00 440.03,720.70 439.67,720.33 C439.30,719.97 439.00,706.75 439.00,690.96 L 439.00 662.25 L 449.81 648.87 C455.76,641.52 466.15,628.75 472.91,620.50 C479.67,612.25 489.45,600.24 494.65,593.80 C499.85,587.37 506.99,579.05 510.51,575.30 ZM 236.82 493.48 C237.00,494.01 236.78,494.52 236.32,494.60 C235.60,494.74 163.57,476.98 150.46,473.43 C145.72,472.15 145.32,471.78 143.73,467.28 C141.68,461.51 138.00,439.34 138.00,432.79 L 138.00 428.09 L 176.95 428.02 C214.59,427.96 215.94,428.02 216.95,429.91 C217.91,431.71 223.81,451.51 233.22,484.50 C233.85,486.70 234.77,489.04 235.27,489.71 C235.76,490.37 235.87,491.39 235.51,491.98 C235.15,492.57 235.22,492.93 235.68,492.77 C236.13,492.62 236.65,492.94 236.82,493.48 ZM 659.39 443.58 C654.14,445.16 651.32,445.23 645.64,443.89 C641.38,442.89 636.00,440.02 636.00,438.75 C636.00,437.99 640.81,427.98 641.59,427.11 C641.78,426.90 642.96,427.39 644.22,428.21 C650.02,431.97 656.38,431.01 659.39,425.92 C661.46,422.42 661.44,422.37 649.05,394.00 C645.32,385.48 641.02,375.46 639.49,371.75 C636.44,364.36 634.76,363.02 635.46,368.53 C635.92,372.12 634.97,376.21 633.70,376.07 C633.32,376.03 630.30,376.00 627.00,376.00 L 621.00 376.00 L 621.00 422.00 L 604.00 422.00 L 604.00 376.00 L 594.00 376.00 L 594.00 363.11 L 598.75 362.80 L 603.50 362.50 L 604.03 356.50 C604.32,353.20 605.35,349.03 606.32,347.23 C608.96,342.30 615.22,338.24 621.35,337.48 C626.49,336.83 637.80,338.29 639.04,339.75 C639.39,340.16 638.81,343.31 637.76,346.74 C636.05,352.27 635.62,352.87 633.98,351.99 C632.96,351.45 630.53,351.00 628.57,351.00 C623.95,351.00 621.00,353.88 621.00,358.38 C621.00,362.84 622.06,363.07 639.46,362.33 L 653.50 361.73 L 661.37 381.37 C665.69,392.17 669.55,401.00 669.95,401.00 C670.34,401.00 673.26,394.36 676.45,386.25 C679.63,378.14 683.13,369.36 684.24,366.75 L 686.25 362.00 L 702.97 362.00 L 700.91 367.25 C692.82,387.81 675.41,429.25 673.40,432.72 C670.35,437.98 665.49,441.75 659.39,443.58 ZM 318.50 721.56 C314.10,722.41 309.52,723.30 308.32,723.55 C307.12,723.80 305.47,723.33 304.64,722.50 C303.82,721.68 301.91,721.00 300.41,721.00 C297.16,721.00 273.97,711.79 269.58,708.76 C242.40,690.00 225.13,661.09 218.58,623.40 C216.95,614.03 216.52,597.86 217.96,600.00 C218.52,600.83 218.98,602.32 218.98,603.32 C219.02,606.96 224.20,620.65 227.96,627.00 C231.54,633.05 243.26,646.00 245.16,646.00 C245.62,646.00 246.00,647.43 246.00,649.19 C246.00,651.89 247.42,653.77 255.40,661.58 C268.07,673.98 276.58,680.27 288.50,686.01 C314.36,698.47 332.33,699.72 365.50,691.39 C371.64,689.85 387.23,683.12 387.84,681.75 C388.02,681.33 388.56,681.23 389.03,681.52 C389.50,681.81 390.81,681.05 391.94,679.84 C394.16,677.45 398.12,676.53 397.33,678.58 C396.65,680.36 388.10,687.43 376.55,695.75 C359.25,708.24 337.45,717.93 318.50,721.56 ZM 728.00 403.45 L 728.00 422.00 L 710.00 422.00 L 710.00 362.00 L 727.00 362.00 L 727.00 368.10 L 730.25 365.69 C734.81,362.30 739.33,361.00 746.40,361.02 C753.55,361.05 759.65,363.46 762.85,367.54 L 765.05 370.33 L 767.77 367.78 C773.16,362.74 776.83,361.51 786.50,361.50 C794.52,361.50 796.01,361.80 800.18,364.25 C803.80,366.38 805.48,368.29 807.68,372.75 C810.47,378.44 810.50,378.72 810.83,400.25 L 811.17 422.00 L 793.00 422.00 L 793.00 403.47 C793.00,378.87 791.81,376.00 781.64,376.00 C776.07,376.00 771.52,379.45 770.03,384.81 C769.47,386.84 769.01,396.04 769.01,405.25 L 769.00 422.00 L 752.00 422.00 L 751.99 404.75 C751.99,385.68 751.18,381.08 747.33,378.05 C744.14,375.54 736.48,375.27 733.22,377.56 C728.57,380.82 728.00,383.63 728.00,403.45 ZM 872.15 419.72 C867.59,421.95 865.02,422.47 857.56,422.70 C847.12,423.02 841.94,421.68 834.58,416.78 C815.25,403.92 817.38,375.42 838.50,364.16 C843.00,361.77 844.55,361.50 854.00,361.50 C863.44,361.50 865.00,361.77 869.50,364.16 C878.31,368.84 883.30,376.06 885.02,386.61 C885.08,387.00 885.14,387.38 885.20,387.74 C885.75,391.04 886.08,393.03 885.26,394.22 C884.02,396.01 880.18,396.01 870.54,396.00 C869.85,396.00 869.13,396.00 868.37,396.00 C857.63,396.00 852.10,395.65 852.50,395.00 C852.88,394.39 851.34,394.00 848.56,394.00 C846.05,394.00 844.00,394.45 844.00,395.00 C844.00,395.55 842.90,396.00 841.56,396.00 C837.66,396.00 837.52,397.91 841.14,401.71 C845.42,406.21 851.32,408.95 856.78,408.98 C861.25,409.00 867.29,406.95 870.02,404.48 C871.43,403.20 872.16,403.60 876.49,407.99 C881.28,412.85 881.33,412.98 879.52,414.97 C878.51,416.09 875.19,418.23 872.15,419.72 ZM 446.29 419.65 C441.93,421.78 439.14,422.35 431.70,422.64 C425.80,422.87 421.06,422.52 418.50,421.67 C403.47,416.67 396.03,407.34 395.23,392.50 C394.82,384.96 394.99,384.13 398.16,378.03 C405.56,363.82 422.03,357.60 439.07,362.59 C447.00,364.91 454.96,373.22 457.32,381.63 C459.00,387.63 458.72,392.75 456.88,389.83 C456.19,388.75 456.03,388.75 456.02,389.81 C456.01,390.53 455.55,390.84 455.00,390.50 C454.45,390.16 454.00,390.62 454.00,391.51 C454.00,395.62 451.88,396.08 433.28,396.00 C423.50,395.95 414.72,395.94 413.77,395.96 C412.31,395.99 412.21,396.41 413.09,398.75 C416.75,408.41 431.18,411.96 442.02,405.87 L 446.07 403.59 L 450.73 408.25 C455.31,412.84 455.36,412.95 453.54,414.96 C452.52,416.09 449.26,418.20 446.29,419.65 ZM 378.37 419.61 C373.86,421.81 371.08,422.43 364.61,422.64 C355.60,422.94 352.48,422.35 346.28,419.16 C340.36,416.12 335.60,411.69 332.45,406.33 C330.33,402.70 329.66,400.03 329.25,393.60 C328.61,383.25 330.93,377.21 338.14,370.47 C344.91,364.14 350.71,361.74 360.59,361.21 C372.00,360.58 378.61,362.65 385.05,368.86 C387.77,371.48 390.00,374.13 390.00,374.75 C390.00,375.36 387.10,377.41 383.55,379.29 L 377.10 382.72 L 374.39 379.88 C366.97,372.14 352.30,374.25 348.39,383.62 C346.60,387.90 346.61,396.34 348.40,399.80 C351.59,405.93 359.14,409.76 365.62,408.54 C367.55,408.18 370.83,406.34 372.93,404.44 C375.03,402.55 377.19,401.00 377.73,401.00 C378.51,401.00 389.69,406.55 390.76,407.46 C390.90,407.59 389.45,409.75 387.53,412.26 C385.24,415.26 382.08,417.79 378.37,419.61 ZM 554.13 421.84 C547.68,423.77 539.12,423.27 533.50,420.63 C523.50,415.94 522.00,412.14 522.00,391.59 L 522.00 376.11 L 517.25 375.80 C514.21,375.61 512.54,375.05 512.60,374.25 C512.66,373.56 512.77,370.47 512.85,367.39 L 513.00 361.77 L 517.46 362.44 L 521.91 363.11 L 522.21 355.30 L 522.50 347.50 L 540.00 346.92 L 540.00 362.00 L 554.00 362.00 L 554.17 365.75 C554.26,367.81 554.37,370.85 554.42,372.50 L 554.50 375.50 L 547.25 375.79 L 540.00 376.09 L 540.00 390.35 C540.00,407.18 540.50,408.44 547.15,408.44 C549.54,408.44 552.20,408.10 553.06,407.68 C554.28,407.09 554.97,408.07 556.31,412.30 C558.69,419.86 558.54,420.52 554.13,421.84 ZM 487.17 404.75 L 486.83 422.00 L 470.00 422.00 L 470.00 362.00 L 478.50 362.00 C483.17,362.00 486.95,362.34 486.88,362.75 C486.82,363.16 486.82,364.76 486.88,366.29 L 487.00 369.08 L 489.25 366.95 C492.84,363.56 496.83,361.87 502.66,361.27 L 508.09 360.71 L 507.79 368.61 L 507.50 376.50 L 501.65 377.13 C498.26,377.49 494.69,378.58 493.15,379.72 C488.18,383.40 487.53,386.12 487.17,404.75 ZM 585.14 418.75 L 584.78 422.00 L 568.00 422.00 L 568.00 362.00 L 584.88 362.00 L 585.19 388.75 C585.36,403.46 585.34,416.96 585.14,418.75 ZM 582.34 351.89 C579.50,353.19 574.41,353.24 571.36,352.01 C568.19,350.73 566.00,347.03 566.03,343.03 C566.08,337.28 569.88,334.00 576.50,334.00 C582.97,334.00 586.91,337.28 586.97,342.70 C587.01,347.08 585.26,350.56 582.34,351.89 ZM 412.75 386.41 C413.07,386.74 419.78,387.00 427.67,387.00 C443.71,387.00 444.02,386.83 439.97,380.19 C435.90,373.50 424.57,372.04 417.65,377.32 C414.38,379.81 411.50,385.16 412.75,386.41 ZM 839.44 384.37 L 838.78 387.00 L 853.33 387.00 C861.33,387.00 868.11,386.62 868.40,386.17 C868.68,385.71 868.00,383.49 866.89,381.25 C863.66,374.71 855.27,372.27 847.27,375.54 C843.17,377.22 840.48,380.25 839.44,384.37 Z" fill="rgb(75,51,32)"/>
<path d="M 307.07 723.58 C287.11,726.31 258.92,724.81 241.30,720.04 C186.56,705.21 150.05,666.11 140.41,612.01 C137.23,594.14 138.74,568.60 144.13,549.00 C146.41,540.74 152.60,525.87 154.17,524.89 C154.72,524.55 155.10,523.97 155.01,523.60 C154.81,522.72 160.45,512.71 162.18,510.89 C162.90,510.13 164.08,508.38 164.79,507.00 C165.51,505.62 167.98,502.37 170.29,499.77 L 174.50 495.05 L 208.00 503.42 C232.06,509.44 242.00,511.53 243.26,510.86 C244.23,510.34 248.51,505.80 252.76,500.77 C257.02,495.73 265.45,485.94 271.50,479.00 C277.55,472.06 285.20,463.12 288.50,459.12 L 294.50 451.86 L 302.82 452.44 C334.09,454.63 364.06,468.07 385.57,489.54 C394.32,498.28 405.00,511.99 405.00,514.50 C405.00,515.67 350.98,550.93 347.96,551.72 C346.91,551.99 345.17,550.32 342.84,546.82 C335.14,535.23 320.25,523.70 308.12,519.96 C282.96,512.18 259.28,517.14 240.51,534.11 C227.08,546.25 219.94,560.31 218.14,578.19 C216.88,590.65 218.17,602.49 221.66,613.02 C220.10,608.79 219.00,605.00 218.98,603.32 C218.98,602.32 218.52,600.83 217.96,600.00 C216.52,597.86 216.95,614.03 218.58,623.40 C225.13,661.09 242.40,690.00 269.58,708.76 C273.97,711.79 297.16,721.00 300.41,721.00 C301.91,721.00 303.82,721.68 304.64,722.50 C305.20,723.06 306.15,723.46 307.07,723.58 ZM 236.82 493.48 C236.65,492.94 236.13,492.62 235.68,492.77 C235.22,492.93 235.15,492.57 235.51,491.98 C235.87,491.39 235.76,490.37 235.27,489.71 C234.77,489.04 233.85,486.70 233.22,484.50 C223.81,451.51 217.91,431.71 216.95,429.91 C215.94,428.02 214.59,427.96 176.95,428.02 L 138.00 428.09 L 138.00 429.00 L 95.00 429.00 L 94.87 470.25 C94.80,492.94 94.64,512.59 94.50,513.92 C94.27,516.20 98.08,521.00 100.12,521.00 C100.58,521.00 101.90,523.09 103.06,525.63 C105.57,531.14 105.13,535.05 101.39,540.57 C98.84,544.32 98.83,544.39 99.96,554.42 C102.56,577.54 108.04,623.77 108.59,627.25 L 109.18 631.00 L 90.09 631.00 C73.75,631.00 71.00,630.78 71.00,629.49 C71.00,628.67 72.76,613.70 74.91,596.24 C75.52,591.35 76.07,586.90 76.57,582.87 C81.10,546.27 81.47,543.26 80.14,541.85 C79.88,541.57 79.54,541.35 79.16,540.95 C73.04,534.37 75.55,522.09 83.66,518.95 L 85.82 518.12 L 86.08 429.00 L 71.42 429.00 C58.50,429.00 56.90,428.82 58.00,427.50 C58.68,426.67 60.36,426.00 61.72,426.00 C63.22,426.00 64.37,425.32 64.66,424.25 C65.09,422.64 104.83,395.49 109.33,393.72 C110.43,393.30 111.81,392.35 112.41,391.62 C113.01,390.89 128.31,380.51 146.41,368.54 L 179.33 346.79 L 225.41 340.96 C250.76,337.75 285.80,333.30 303.29,331.07 C320.77,328.83 336.43,327.00 338.08,327.00 C340.82,327.00 339.92,327.98 328.23,337.75 C296.46,364.28 284.44,374.35 283.62,375.07 C283.14,375.50 283.96,378.01 285.44,380.68 C291.60,391.69 300.00,413.20 300.00,417.92 C299.99,421.14 297.64,424.96 291.33,432.00 C288.62,435.02 285.07,439.03 283.45,440.90 C281.83,442.78 277.35,447.91 273.50,452.31 C263.26,464.02 257.68,470.47 246.54,483.45 C242.54,488.11 238.82,492.05 236.88,493.76 C236.88,493.67 236.86,493.57 236.82,493.48 ZM 395.85 680.42 C396.68,679.58 397.19,678.96 397.33,678.58 C398.12,676.53 394.16,677.45 391.94,679.84 C390.81,681.05 389.50,681.81 389.03,681.52 C388.56,681.23 388.02,681.33 387.84,681.75 C387.23,683.12 371.64,689.85 365.50,691.39 C332.33,699.72 314.36,698.47 288.50,686.01 C276.58,680.27 268.07,673.98 255.40,661.58 C247.42,653.77 246.00,651.89 246.00,649.19 C246.00,647.43 245.62,646.00 245.16,646.00 C244.27,646.00 241.23,643.16 237.87,639.52 C242.44,644.00 247.70,647.75 253.58,650.61 C264.36,655.86 273.36,657.96 285.18,657.98 C311.65,658.04 335.51,645.64 361.15,618.50 C369.98,609.15 389.19,586.34 407.13,563.89 C438.32,524.87 459.94,502.74 481.50,487.78 C505.52,471.10 526.48,462.10 552.00,457.52 C566.60,454.89 594.98,454.35 608.32,456.45 C620.54,458.36 628.65,460.32 633.91,462.63 C635.55,463.35 637.09,464.04 638.57,464.72 C634.86,463.44 631.87,463.76 622.27,464.83 C589.74,468.46 570.10,477.34 544.00,500.20 C530.19,512.30 511.40,536.03 495.84,561.02 C490.95,568.88 493.36,567.51 506.50,554.93 C509.17,552.37 511.81,549.97 514.41,547.72 C498.99,561.54 479.15,584.05 450.50,620.01 C443.33,629.01 429.38,645.79 426.39,649.00 C424.61,650.92 418.72,657.27 413.32,663.11 C407.51,669.39 401.70,675.15 395.85,680.42 ZM 457.79 383.53 C458.49,386.60 459.00,390.21 459.00,392.32 L 459.00 397.00 L 436.00 397.00 C419.41,397.00 413.66,397.01 413.06,398.65 C412.21,396.40 412.33,395.99 413.77,395.96 C414.72,395.94 423.50,395.95 433.28,396.00 C451.88,396.08 454.00,395.62 454.00,391.51 C454.00,390.62 454.45,390.16 455.00,390.50 C455.55,390.84 456.01,390.53 456.02,389.81 C456.03,388.75 456.19,388.75 456.88,389.83 C458.52,392.43 458.92,388.64 457.79,383.53 ZM 885.53 393.71 C885.49,394.07 885.44,394.39 885.37,394.67 L 884.78 397.00 L 861.89 397.00 C848.57,397.00 839.00,397.39 839.00,397.92 C839.00,399.46 842.38,403.10 845.68,405.46 C844.05,404.41 842.51,403.15 841.14,401.71 C837.52,397.91 837.66,396.00 841.56,396.00 C842.90,396.00 844.00,395.55 844.00,395.00 C844.00,394.45 846.05,394.00 848.56,394.00 C851.34,394.00 852.88,394.39 852.50,395.00 C852.10,395.65 857.63,396.00 868.37,396.00 C869.13,396.00 869.85,396.00 870.54,396.00 C880.18,396.01 884.02,396.01 885.26,394.22 C885.37,394.06 885.46,393.89 885.53,393.71 ZM 338.86 715.76 C351.98,710.90 365.23,703.92 376.55,695.75 C381.21,692.39 385.38,689.24 388.75,686.55 C372.69,699.83 356.30,709.43 338.86,715.76 ZM 534.76 532.85 C542.77,528.13 550.50,525.00 558.03,523.40 C551.32,524.82 542.73,528.37 534.76,532.85 ZM 422.32 407.42 C428.32,409.63 436.01,409.25 442.02,405.87 C435.73,409.41 428.22,409.69 422.32,407.42 ZM 851.92 408.28 C854.85,408.96 858.05,409.01 861.04,408.49 C859.57,408.81 858.11,408.98 856.78,408.98 C855.18,408.97 853.54,408.73 851.92,408.28 ZM 235.90 494.54 C235.72,494.64 235.60,494.68 235.54,494.66 C235.30,494.57 231.98,493.72 226.62,492.38 C231.39,493.52 234.75,494.31 235.90,494.54 ZM 145.57 471.21 C145.04,470.82 144.74,470.43 144.54,470.00 C144.21,469.28 144.14,468.44 143.73,467.28 C144.41,469.23 144.88,470.40 145.57,471.21 ZM 656.43 474.53 C661.33,477.91 665.90,481.81 671.47,487.11 C666.13,482.03 661.25,477.93 656.43,474.53 ZM 879.72 372.90 C877.18,369.32 873.80,366.44 869.50,364.16 C873.98,366.54 877.16,369.23 879.72,372.90 ZM 229.76 629.71 C229.04,628.71 228.43,627.80 227.96,627.00 C227.44,626.12 226.89,625.09 226.33,623.97 C227.38,625.95 228.53,627.87 229.76,629.71 ZM 140.24 451.19 C139.00,443.93 138.00,436.44 138.00,433.25 L 138.00 432.79 C138.00,436.20 139.00,443.84 140.24,451.19 ZM 318.50 721.56 C318.72,721.52 318.93,721.48 319.15,721.44 C316.82,721.94 314.47,722.40 312.10,722.80 C313.97,722.44 316.26,721.99 318.50,721.56 ZM 452.10 371.89 C454.50,374.85 456.36,378.21 457.30,381.57 C456.34,378.20 454.49,374.85 452.10,371.89 ZM 881.81 376.37 C881.86,376.45 881.90,376.53 881.94,376.61 C882.17,377.06 882.39,377.55 882.61,378.08 C882.36,377.49 882.10,376.93 881.81,376.37 Z" fill="rgb(90,65,43)"/>
<path d="M 0.00 512.00 L 0.00 0.00 L 512.00 0.00 L 1024.00 0.00 L 1024.00 512.00 L 1024.00 1024.00 L 512.00 1024.00 L 0.00 1024.00 L 0.00 512.00 ZM 307.87 723.47 C347.17,717.80 380.20,698.89 413.32,663.11 C418.72,657.27 424.61,650.92 426.39,649.00 C429.38,645.79 443.33,629.01 450.50,620.01 C485.82,575.68 507.76,551.79 524.52,539.42 C534.53,532.04 548.27,525.47 558.03,523.40 C568.14,521.26 584.31,521.92 592.36,524.82 C607.18,530.15 616.69,542.49 621.72,562.91 C623.13,568.62 623.39,579.62 623.72,645.25 L 624.09 721.00 L 662.80 721.00 L 701.50 721.00 L 701.69 648.25 C701.90,566.58 701.91,566.46 709.06,551.15 C715.76,536.82 727.56,527.11 742.72,523.48 C752.65,521.09 770.11,521.80 778.17,524.90 C790.49,529.64 799.80,540.39 804.61,555.42 C808.19,566.61 808.88,583.23 808.95,659.25 L 809.00 721.00 L 847.55 721.00 L 886.10 721.00 L 885.72 636.75 C885.29,544.34 885.41,546.32 879.01,526.27 C864.02,479.35 822.43,452.23 768.61,454.27 C760.85,454.56 751.19,455.53 747.14,456.41 C724.23,461.41 701.53,472.98 686.13,487.52 L 678.99 494.25 L 671.47 487.11 C658.92,475.18 651.49,470.34 633.91,462.63 C628.65,460.32 620.54,458.36 608.32,456.45 C594.98,454.35 566.60,454.89 552.00,457.52 C526.48,462.10 505.52,471.10 481.50,487.78 C459.94,502.74 438.32,524.87 407.13,563.89 C389.19,586.34 369.98,609.15 361.15,618.50 C335.51,645.64 311.65,658.04 285.18,657.98 C273.36,657.96 264.36,655.86 253.58,650.61 C228.62,638.46 214.89,610.40 218.14,578.19 C219.94,560.31 227.08,546.25 240.51,534.11 C259.28,517.14 282.96,512.18 308.12,519.96 C320.25,523.70 335.14,535.23 342.84,546.82 C345.17,550.32 346.91,551.99 347.96,551.72 C350.98,550.93 405.00,515.67 405.00,514.50 C405.00,511.99 394.32,498.28 385.57,489.54 C364.06,468.07 334.09,454.63 302.82,452.44 L 294.50 451.86 L 288.50 459.12 C285.20,463.12 277.55,472.06 271.50,479.00 C265.45,485.94 257.02,495.73 252.76,500.77 C248.51,505.80 244.23,510.34 243.26,510.86 C242.00,511.53 232.06,509.44 208.00,503.42 L 174.50 495.05 L 170.29 499.77 C167.98,502.37 165.51,505.62 164.79,507.00 C164.08,508.38 162.90,510.13 162.18,510.89 C160.45,512.71 154.81,522.72 155.01,523.60 C155.10,523.97 154.72,524.55 154.17,524.89 C152.60,525.87 146.41,540.74 144.13,549.00 C138.74,568.60 137.23,594.14 140.41,612.01 C150.05,666.11 186.56,705.21 241.30,720.04 C259.16,724.87 287.87,726.35 307.87,723.47 ZM 516.96 644.75 L 516.91 568.50 L 510.51 575.30 C506.99,579.05 499.85,587.37 494.65,593.80 C489.45,600.24 479.67,612.25 472.91,620.50 C466.15,628.75 455.76,641.52 449.81,648.87 L 439.00 662.25 L 439.00 690.96 C439.00,706.75 439.30,719.97 439.67,720.33 C440.03,720.70 457.58,721.00 478.67,721.00 L 517.00 721.00 L 516.96 644.75 ZM 108.59 627.25 C108.04,623.77 102.56,577.54 99.96,554.42 C98.83,544.39 98.84,544.32 101.39,540.57 C105.13,535.05 105.57,531.14 103.06,525.63 C101.90,523.09 100.58,521.00 100.12,521.00 C98.08,521.00 94.27,516.20 94.50,513.92 C94.64,512.59 94.80,492.94 94.87,470.25 L 95.00 429.00 L 116.50 429.00 L 138.00 429.00 L 138.00 433.25 C138.00,439.42 141.75,461.70 143.73,467.28 C145.73,472.93 139.65,470.89 195.00,484.53 C216.73,489.88 234.97,494.44 235.54,494.66 C236.11,494.87 241.06,489.83 246.54,483.45 C257.68,470.47 263.26,464.02 273.50,452.31 C277.35,447.91 281.83,442.78 283.45,440.90 C285.07,439.03 288.62,435.02 291.33,432.00 C297.64,424.96 299.99,421.14 300.00,417.92 C300.00,413.20 291.60,391.69 285.44,380.68 C283.96,378.01 283.14,375.50 283.62,375.07 C284.44,374.35 296.46,364.28 328.23,337.75 C339.92,327.98 340.82,327.00 338.08,327.00 C336.43,327.00 320.77,328.83 303.29,331.07 C285.80,333.30 250.76,337.75 225.41,340.96 L 179.33 346.79 L 146.41 368.54 C128.31,380.51 113.01,390.89 112.41,391.62 C111.81,392.35 110.43,393.30 109.33,393.72 C104.83,395.49 65.09,422.64 64.66,424.25 C64.37,425.32 63.22,426.00 61.72,426.00 C60.36,426.00 58.68,426.67 58.00,427.50 C56.90,428.82 58.50,429.00 71.42,429.00 L 86.08 429.00 L 85.95 473.56 L 85.82 518.12 L 83.66 518.95 C75.55,522.09 73.04,534.37 79.16,540.95 C81.66,543.63 82.09,538.08 74.91,596.24 C72.76,613.70 71.00,628.67 71.00,629.49 C71.00,630.78 73.75,631.00 90.09,631.00 L 109.18 631.00 L 108.59 627.25 ZM 659.39 443.58 C665.49,441.75 670.35,437.98 673.40,432.72 C675.41,429.25 692.82,387.81 700.91,367.25 L 702.97 362.00 L 694.61 362.00 L 686.25 362.00 L 684.24 366.75 C683.13,369.36 679.63,378.14 676.45,386.25 C673.26,394.36 670.34,401.00 669.95,401.00 C669.55,401.00 665.69,392.17 661.37,381.37 L 653.50 361.73 L 639.46 362.33 C622.06,363.07 621.00,362.84 621.00,358.38 C621.00,353.88 623.95,351.00 628.57,351.00 C630.53,351.00 632.96,351.45 633.98,351.99 C635.62,352.87 636.05,352.27 637.76,346.74 C638.81,343.31 639.39,340.16 639.04,339.75 C637.80,338.29 626.49,336.83 621.35,337.48 C615.22,338.24 608.96,342.30 606.32,347.23 C605.35,349.03 604.32,353.20 604.03,356.50 L 603.50 362.50 L 598.75 362.80 L 594.00 363.11 L 594.00 369.55 L 594.00 376.00 L 599.00 376.00 L 604.00 376.00 L 604.00 399.00 L 604.00 422.00 L 612.50 422.00 L 621.00 422.00 L 621.00 399.00 L 621.00 376.00 L 627.00 376.00 C630.30,376.00 633.32,376.03 633.70,376.07 C634.97,376.21 635.92,372.12 635.46,368.53 C634.76,363.02 636.44,364.36 639.49,371.75 C641.02,375.46 645.32,385.48 649.05,394.00 C661.44,422.37 661.46,422.42 659.39,425.92 C656.38,431.01 650.02,431.97 644.22,428.21 C642.96,427.39 641.78,426.90 641.59,427.11 C640.81,427.98 636.00,437.99 636.00,438.75 C636.00,440.02 641.38,442.89 645.64,443.89 C651.32,445.23 654.14,445.16 659.39,443.58 ZM 378.37 419.61 C382.08,417.79 385.24,415.26 387.53,412.26 C389.45,409.75 390.90,407.59 390.76,407.46 C389.69,406.55 378.51,401.00 377.73,401.00 C377.19,401.00 375.03,402.55 372.93,404.44 C370.83,406.34 367.55,408.18 365.62,408.54 C359.14,409.76 351.59,405.93 348.40,399.80 C346.61,396.34 346.60,387.90 348.39,383.62 C352.30,374.25 366.97,372.14 374.39,379.88 L 377.10 382.72 L 383.55 379.29 C387.10,377.41 390.00,375.36 390.00,374.75 C390.00,374.13 387.77,371.48 385.05,368.86 C378.61,362.65 372.00,360.58 360.59,361.21 C350.71,361.74 344.91,364.14 338.14,370.47 C330.93,377.21 328.61,383.25 329.25,393.60 C329.66,400.03 330.33,402.70 332.45,406.33 C335.60,411.69 340.36,416.12 346.28,419.16 C352.48,422.35 355.60,422.94 364.61,422.64 C371.08,422.43 373.86,421.81 378.37,419.61 ZM 446.29 419.65 C449.26,418.20 452.52,416.09 453.54,414.96 C455.36,412.95 455.31,412.84 450.73,408.25 L 446.07 403.59 L 442.02 405.87 C433.29,410.77 421.02,409.37 415.53,402.85 C410.62,397.02 410.68,397.00 436.00,397.00 L 459.00 397.00 L 459.00 392.32 C459.00,389.74 458.24,384.91 457.30,381.57 C454.96,373.22 446.97,364.91 439.07,362.59 C422.03,357.60 405.56,363.82 398.16,378.03 C394.99,384.13 394.82,384.96 395.23,392.50 C396.03,407.34 403.47,416.67 418.50,421.67 C421.06,422.52 425.80,422.87 431.70,422.64 C439.14,422.35 441.93,421.78 446.29,419.65 ZM 554.13 421.84 C558.54,420.52 558.69,419.86 556.31,412.30 C554.97,408.07 554.28,407.09 553.06,407.68 C552.20,408.10 549.54,408.44 547.15,408.44 C540.50,408.44 540.00,407.18 540.00,390.35 L 540.00 376.09 L 547.25 375.79 L 554.50 375.50 L 554.42 372.50 C554.37,370.85 554.26,367.81 554.17,365.75 L 554.00 362.00 L 547.00 362.00 L 540.00 362.00 L 540.00 354.46 L 540.00 346.92 L 531.25 347.21 L 522.50 347.50 L 522.21 355.30 L 521.91 363.11 L 517.46 362.44 L 513.00 361.77 L 512.85 367.39 C512.77,370.47 512.66,373.56 512.60,374.25 C512.54,375.05 514.21,375.61 517.25,375.80 L 522.00 376.11 L 522.00 391.59 C522.00,412.14 523.50,415.94 533.50,420.63 C539.12,423.27 547.68,423.77 554.13,421.84 ZM 872.15 419.72 C875.19,418.23 878.51,416.09 879.52,414.97 C881.33,412.98 881.28,412.85 876.49,407.99 C872.16,403.60 871.43,403.20 870.02,404.48 C865.01,409.02 855.26,410.21 848.46,407.12 C844.62,405.38 839.00,399.91 839.00,397.92 C839.00,397.39 848.57,397.00 861.89,397.00 L 884.78 397.00 L 885.37 394.67 C886.24,391.21 884.36,381.30 881.94,376.61 C879.01,370.92 875.36,367.27 869.50,364.16 C865.00,361.77 863.44,361.50 854.00,361.50 C844.55,361.50 843.00,361.77 838.50,364.16 C817.38,375.42 815.25,403.92 834.58,416.78 C841.94,421.68 847.12,423.02 857.56,422.70 C865.02,422.47 867.59,421.95 872.15,419.72 ZM 487.17 404.75 C487.53,386.12 488.18,383.40 493.15,379.72 C494.69,378.58 498.26,377.49 501.65,377.13 L 507.50 376.50 L 507.79 368.61 L 508.09 360.71 L 502.66 361.27 C496.83,361.87 492.84,363.56 489.25,366.95 L 487.00 369.08 L 486.88 366.29 C486.82,364.76 486.82,363.16 486.88,362.75 C486.95,362.34 483.17,362.00 478.50,362.00 L 470.00 362.00 L 470.00 392.00 L 470.00 422.00 L 478.42 422.00 L 486.83 422.00 L 487.17 404.75 ZM 585.14 418.75 C585.34,416.96 585.36,403.46 585.19,388.75 L 584.88 362.00 L 576.44 362.00 L 568.00 362.00 L 568.00 392.00 L 568.00 422.00 L 576.39 422.00 L 584.78 422.00 L 585.14 418.75 ZM 728.00 403.45 C728.00,383.63 728.57,380.82 733.22,377.56 C736.48,375.27 744.14,375.54 747.33,378.05 C751.18,381.08 751.99,385.68 751.99,404.75 L 752.00 422.00 L 760.50 422.00 L 769.00 422.00 L 769.01 405.25 C769.01,396.04 769.47,386.84 770.03,384.81 C771.52,379.45 776.07,376.00 781.64,376.00 C791.81,376.00 793.00,378.87 793.00,403.47 L 793.00 422.00 L 802.08 422.00 L 811.17 422.00 L 810.83 400.25 C810.50,378.72 810.47,378.44 807.68,372.75 C805.48,368.29 803.80,366.38 800.18,364.25 C796.01,361.80 794.52,361.50 786.50,361.50 C776.83,361.51 773.16,362.74 767.77,367.78 L 765.05 370.33 L 762.85 367.54 C759.65,363.46 753.55,361.05 746.40,361.02 C739.33,361.00 734.81,362.30 730.25,365.69 L 727.00 368.10 L 727.00 365.05 L 727.00 362.00 L 718.50 362.00 L 710.00 362.00 L 710.00 392.00 L 710.00 422.00 L 719.00 422.00 L 728.00 422.00 L 728.00 403.45 ZM 582.34 351.89 C585.26,350.56 587.01,347.08 586.97,342.70 C586.91,337.28 582.97,334.00 576.50,334.00 C569.88,334.00 566.08,337.28 566.03,343.03 C566.00,347.03 568.19,350.73 571.36,352.01 C574.41,353.24 579.50,353.19 582.34,351.89 ZM 412.75 386.41 C411.50,385.16 414.38,379.81 417.65,377.32 C424.57,372.04 435.90,373.50 439.97,380.19 C444.02,386.83 443.71,387.00 427.67,387.00 C419.78,387.00 413.07,386.74 412.75,386.41 ZM 839.44 384.37 C840.48,380.25 843.17,377.22 847.27,375.54 C855.27,372.27 863.66,374.71 866.89,381.25 C868.00,383.49 868.68,385.71 868.40,386.17 C868.11,386.62 861.33,387.00 853.33,387.00 L 838.78 387.00 L 839.44 384.37 Z" fill="rgb(226,192,157)"/>
</g>
</svg>