<svg xmlns="http://www.w3.org/2000/svg" width="500" height="500" viewBox="0 0 500 500">
<g>
<path d="M 486.80 368.80 C486.14,369.46 485.13,369.90 484.55,369.77 C483.97,369.65 474.61,369.41 463.75,369.25 L 444.00 368.96 L 443.99 327.23 C443.99,304.06 443.54,282.74 442.98,279.30 C441.64,271.05 439.00,265.31 434.42,260.68 C428.01,254.21 425.90,253.50 413.00,253.50 C401.86,253.50 401.33,253.60 396.00,256.71 C390.07,260.17 387.66,263.16 383.30,272.50 L 380.50 278.50 L 379.86 369.00 L 336.00 369.00 L 335.99 327.75 C335.99,304.54 335.54,283.75 334.97,280.22 C332.86,267.22 326.51,258.27 316.75,254.54 C313.27,253.21 309.97,252.88 302.84,253.15 C294.80,253.45 292.55,253.95 286.64,256.75 C279.34,260.20 276.31,262.37 267.10,270.75 C263.92,273.64 261.05,276.00 260.72,276.00 C260.39,276.00 260.19,275.13 260.27,274.07 C260.35,273.01 260.77,272.36 261.21,272.63 C261.64,272.90 262.00,272.59 262.00,271.94 C262.00,270.75 268.76,260.81 274.44,253.65 C284.53,240.93 291.85,234.58 306.00,226.25 C310.67,223.50 320.65,220.57 330.80,218.95 L 339.11 217.62 L 345.80 220.93 C353.00,224.47 358.47,228.34 363.91,233.72 L 367.32 237.09 L 370.91 233.69 C377.67,227.28 389.76,220.23 398.90,217.38 C401.43,216.59 408.23,215.34 414.00,214.62 C423.17,213.46 425.73,213.50 434.17,214.90 C439.49,215.78 444.18,216.84 444.59,217.25 C445.00,217.66 446.28,218.00 447.44,218.00 C450.60,218.00 464.90,226.50 469.80,231.29 C478.40,239.70 483.91,251.14 486.50,265.94 C488.47,277.21 488.73,366.87 486.80,368.80 ZM 271.76 325.75 L 271.50 368.50 L 250.20 369.00 C237.36,369.30 228.52,369.12 227.95,368.55 C226.54,367.14 226.84,338.06 228.30,334.80 C230.36,330.18 269.31,283.00 271.06,283.00 C271.67,283.00 271.93,298.80 271.76,325.75 ZM 106.92 234.15 C106.37,235.17 105.61,235.93 105.21,235.85 C104.82,235.77 103.15,235.50 101.50,235.26 C99.85,235.02 95.27,233.73 91.33,232.41 C87.38,231.08 83.10,230.00 81.82,230.00 C80.55,230.00 76.35,229.13 72.50,228.06 C68.65,226.99 63.32,225.53 60.65,224.81 C57.99,224.09 55.40,222.74 54.90,221.81 C52.36,217.07 49.87,196.19 52.00,197.50 C52.55,197.84 53.00,197.75 53.00,197.31 C53.00,195.93 95.31,196.89 96.22,198.29 C96.96,199.41 99.13,206.27 104.19,223.50 C105.32,227.35 106.62,230.91 107.07,231.40 C107.53,231.90 107.46,233.14 106.92,234.15 ZM 165.49 366.84 C154.25,370.55 142.78,371.55 141.00,368.98 C140.13,367.71 132.60,364.00 130.90,364.00 C129.06,364.00 123.72,359.98 116.75,353.34 C111.63,348.45 101.00,331.40 101.00,328.07 C101.00,326.94 100.09,323.65 98.98,320.76 C97.87,317.87 96.68,312.36 96.33,308.53 C95.78,302.42 95.88,301.74 97.16,303.03 C97.96,303.84 99.72,307.20 101.06,310.50 C102.57,314.22 105.42,318.50 108.56,321.75 C111.34,324.64 113.44,327.00 113.24,327.00 C111.91,327.00 117.96,333.54 123.69,338.29 C140.54,352.26 157.24,356.62 177.79,352.42 C184.83,350.99 188.43,349.67 197.71,345.15 C199.48,344.29 201.24,343.91 201.63,344.29 C202.02,344.68 201.70,345.00 200.92,345.00 C200.14,344.99 197.93,346.55 196.00,348.46 C191.59,352.83 185.42,358.00 184.63,358.00 C184.30,358.00 181.88,359.32 179.25,360.94 C176.63,362.56 170.43,365.21 165.49,366.84 ZM 393.42 194.39 C391.60,195.09 389.06,195.07 387.25,194.34 C386.32,193.96 386.00,189.51 386.00,176.92 L 386.00 160.00 L 389.80 160.00 C391.89,160.00 394.09,160.49 394.68,161.08 C395.45,161.85 397.13,161.70 400.58,160.53 C406.36,158.56 412.47,159.27 415.74,162.27 C417.81,164.17 418.12,164.21 419.76,162.72 C422.41,160.32 429.83,158.95 434.51,160.00 C436.82,160.52 439.58,162.10 441.06,163.75 C443.56,166.53 443.62,166.96 443.56,180.50 L 443.50 194.40 L 439.50 194.45 L 435.50 194.50 L 434.89 182.50 C434.55,175.90 434.21,170.42 434.14,170.32 C431.46,166.79 425.91,165.89 422.44,168.42 C420.76,169.65 420.43,171.45 420.00,182.16 C419.56,193.02 419.29,194.52 417.69,194.82 C416.70,195.01 415.12,194.83 414.19,194.42 C413.26,194.01 412.11,193.63 411.64,193.59 C411.17,193.54 410.70,188.47 410.61,182.33 C410.42,169.17 409.32,167.00 402.83,167.00 C399.55,167.00 398.67,167.49 396.99,170.25 C395.36,172.92 395.01,175.30 395.00,183.64 C395.00,191.97 394.72,193.89 393.42,194.39 ZM 227.31 193.93 C213.76,197.69 202.02,189.68 201.77,176.50 C201.67,171.25 205.28,164.24 208.79,162.85 C210.28,162.27 212.28,161.38 213.24,160.89 C214.19,160.40 217.80,160.00 221.25,160.00 C228.82,160.00 234.15,163.03 236.50,168.66 C238.13,172.55 238.48,177.58 237.19,178.38 C236.38,178.88 220.65,179.30 216.00,178.95 C211.28,178.59 211.03,178.78 212.12,181.91 C213.84,186.86 218.44,187.79 229.66,185.46 C232.23,184.92 233.03,185.19 233.93,186.88 C235.38,189.58 232.70,192.44 227.31,193.93 ZM 359.75 204.25 C357.18,206.47 355.60,207.00 351.48,207.00 C348.68,207.00 345.52,206.37 344.47,205.60 C342.75,204.35 342.70,203.93 343.94,201.61 C345.17,199.31 345.75,199.10 349.19,199.65 C352.12,200.11 353.53,199.83 355.03,198.48 C357.61,196.14 357.52,194.42 354.42,187.37 C353.00,184.14 350.46,178.35 348.76,174.50 C347.06,170.65 344.85,166.43 343.84,165.12 C340.71,161.06 341.42,160.00 347.25,160.02 L 352.50 160.03 L 354.72 165.27 C355.93,168.15 357.89,173.11 359.06,176.30 C360.25,179.55 361.69,181.94 362.34,181.72 C362.97,181.51 364.66,178.22 366.08,174.42 C369.99,164.00 371.05,161.11 372.97,160.31 C373.71,160.00 374.57,160.00 375.78,160.00 L 375.95 160.00 C378.18,160.00 380.00,160.40 380.00,160.89 C380.00,161.38 377.75,167.10 375.00,173.60 C372.25,180.10 370.00,185.81 370.00,186.29 C370.00,188.74 362.51,201.86 359.75,204.25 ZM 478.50 193.14 C466.13,198.76 451.00,189.74 451.00,176.74 C451.00,172.06 454.89,164.92 458.90,162.26 C461.60,160.46 463.70,160.00 469.20,160.00 C476.54,160.00 480.11,161.27 483.63,165.15 C486.14,167.93 488.27,174.05 487.82,177.20 C487.53,179.22 487.00,179.42 482.50,179.20 C479.75,179.06 475.82,178.70 473.76,178.39 C470.66,177.92 470.25,177.60 471.35,176.51 C472.08,175.78 473.76,175.03 475.08,174.84 C478.34,174.38 478.70,171.37 475.84,168.31 C473.80,166.13 472.87,165.87 468.58,166.27 C463.28,166.78 460.70,168.95 461.21,172.49 C461.40,173.84 462.39,174.60 464.20,174.81 C466.00,175.02 466.72,175.58 466.36,176.50 C466.07,177.25 465.23,177.64 464.49,177.36 C463.20,176.86 461.00,179.75 461.00,181.95 C461.00,183.78 467.31,186.99 470.93,187.00 C472.81,187.00 475.84,186.47 477.64,185.81 C480.48,184.79 481.21,184.88 482.96,186.46 C485.49,188.75 484.34,190.48 478.50,193.14 ZM 188.77 193.45 C174.19,199.54 159.16,185.77 164.14,170.90 C166.73,163.16 172.00,160.00 182.30,160.00 C188.33,160.00 190.32,160.42 193.03,162.25 C197.55,165.32 197.71,166.60 193.86,168.94 C190.57,170.94 190.57,170.94 188.44,168.94 C185.72,166.39 183.00,165.89 178.55,167.11 C170.39,169.37 169.85,181.64 177.73,185.85 C180.97,187.59 184.88,187.24 188.71,184.87 C191.70,183.02 192.47,182.91 194.58,184.04 C195.91,184.75 197.00,185.86 197.00,186.49 C197.00,188.26 192.90,191.73 188.77,193.45 ZM 332.78 180.69 L 332.50 194.37 L 329.50 194.69 C324.39,195.22 324.09,194.47 323.78,180.50 C323.50,167.65 323.49,167.58 321.00,167.00 C319.09,166.56 318.43,165.69 318.19,163.28 C317.92,160.50 318.20,160.11 320.67,159.82 C323.10,159.54 323.55,158.95 324.19,155.14 C325.07,149.95 326.42,148.14 330.72,146.35 C334.51,144.76 337.91,144.64 341.40,145.96 C343.73,146.85 343.84,147.16 342.82,150.07 C341.80,153.01 341.46,153.19 337.96,152.72 C333.78,152.16 332.00,153.30 332.00,156.55 C332.00,158.80 334.83,162.00 336.83,162.00 C337.47,162.00 338.00,162.68 338.00,163.50 C338.00,164.32 338.45,165.00 339.00,165.00 C339.55,165.00 340.00,165.45 340.00,166.00 C340.00,166.55 338.44,167.00 336.53,167.00 L 333.06 167.00 ZM 294.02 193.18 C288.83,197.39 277.95,193.48 276.64,186.93 C276.29,185.18 276.00,179.76 276.00,174.88 L 276.00 166.00 L 272.93 166.00 C270.18,166.00 269.90,165.72 270.18,163.25 C270.43,161.11 271.09,160.43 273.20,160.19 C275.59,159.91 275.93,159.40 276.20,155.69 C276.50,151.52 276.52,151.50 280.50,151.50 C284.34,151.50 284.51,151.64 284.82,155.00 C285.24,159.55 286.25,160.46 290.57,160.17 C294.03,159.94 294.12,160.02 293.82,163.21 C293.52,166.31 293.25,166.52 289.25,166.81 L 285.00 167.11 L 285.00 174.83 C285.00,183.92 286.52,187.00 291.02,187.00 C292.99,187.00 294.31,187.71 295.10,189.18 C296.09,191.04 295.93,191.64 294.02,193.18 ZM 254.16 191.75 C254.02,193.68 253.44,194.00 250.00,194.00 C247.80,194.00 245.96,193.89 245.91,193.75 C245.85,193.61 245.70,185.96 245.56,176.75 L 245.30 160.00 L 249.57 160.00 C252.04,160.00 254.00,160.51 254.24,161.22 C254.56,162.18 255.49,162.18 258.56,161.24 C261.70,160.28 262.73,160.30 263.78,161.35 C264.86,162.43 264.16,163.57 259.80,167.82 L 254.50 172.98 L 254.41 181.24 C254.35,185.78 254.24,190.51 254.16,191.75 ZM 312.05 160.00 L 311.50 194.50 L 307.74 194.81 C305.31,195.01 303.83,194.66 303.54,193.81 C303.29,193.09 302.96,185.19 302.79,176.25 L 302.50 160.00 ZM 211.61 173.43 C212.42,175.54 226.17,175.71 227.89,173.63 C231.59,169.18 221.02,163.78 214.96,167.02 C212.46,168.36 210.85,171.45 211.61,173.43 ZM 311.59 151.51 C309.81,154.22 306.35,154.78 303.83,152.75 C301.11,150.56 300.95,148.17 303.34,145.39 C305.25,143.17 306.12,142.87 308.80,143.46 C312.77,144.33 313.99,147.84 311.59,151.51 Z" fill="rgb(73,51,32)"/>
<path d="M 149.69 370.26 C136.38,371.72 132.20,371.81 124.50,370.94 C103.30,368.53 85.96,360.13 72.36,345.67 C63.97,336.76 59.83,329.93 56.03,318.75 C49.26,298.86 49.83,279.86 57.75,260.42 C60.84,252.86 70.51,238.02 72.37,237.97 C74.20,237.93 94.14,242.78 105.58,246.04 C107.83,246.69 110.51,247.05 111.54,246.85 C112.56,246.65 117.20,241.99 121.85,236.50 C126.49,231.00 133.29,223.17 136.95,219.10 L 143.61 211.70 L 152.06 212.99 C173.87,216.32 192.19,226.94 202.97,242.50 C206.87,248.13 207.02,248.58 205.32,249.79 C204.32,250.50 199.23,253.83 194.00,257.18 C188.77,260.54 182.14,264.84 179.26,266.73 L 174.02 270.18 L 167.17 263.11 C159.43,255.11 152.48,251.34 143.06,250.01 C125.15,247.48 108.22,256.65 100.67,273.00 C98.27,278.20 97.57,281.26 97.21,288.27 C96.72,297.62 97.68,302.65 101.66,311.72 C101.93,312.35 102.23,312.96 102.54,313.57 C101.96,312.53 101.46,311.49 101.06,310.50 C99.72,307.20 97.96,303.84 97.16,303.03 C95.88,301.74 95.78,302.42 96.33,308.53 C96.68,312.36 97.87,317.87 98.98,320.76 C100.09,323.65 101.00,326.94 101.00,328.07 C101.00,331.40 111.63,348.45 116.75,353.34 C123.72,359.98 129.06,364.00 130.90,364.00 C132.60,364.00 140.13,367.71 141.00,368.98 C141.89,370.26 145.20,370.65 149.69,370.26 ZM 106.92 234.15 C107.46,233.14 107.53,231.90 107.07,231.40 C106.62,230.91 105.32,227.35 104.19,223.50 C99.13,206.27 96.96,199.41 96.22,198.29 C95.31,196.89 53.00,195.93 53.00,197.31 C53.00,197.75 52.55,197.84 52.00,197.50 C51.05,196.91 51.02,200.74 51.50,205.58 C51.00,202.35 50.56,199.75 50.41,199.22 C50.13,198.25 47.08,198.01 37.77,198.22 L 25.50 198.50 L 24.97 249.83 L 27.49 251.81 C31.04,254.60 31.72,259.08 29.22,263.20 C28.01,265.20 27.37,267.68 27.60,269.50 C31.54,300.65 33.04,314.46 32.60,315.60 C31.84,317.57 13.18,317.63 12.42,315.66 C12.14,314.92 13.25,303.60 14.90,290.50 C17.57,269.21 17.73,266.38 16.44,263.89 C14.32,259.78 14.67,255.96 17.44,253.05 L 19.88 250.50 L 20.01 225.50 C20.07,211.75 20.10,199.94 20.06,199.25 C20.02,198.37 17.72,197.99 12.25,197.96 C11.47,197.95 10.75,197.96 10.09,197.96 C7.75,197.98 6.27,197.99 6.08,197.51 C5.76,196.67 9.26,194.36 18.77,188.09 C20.32,187.06 22.03,185.94 23.90,184.70 C32.37,179.09 47.24,169.22 56.94,162.76 L 74.57 151.02 L 94.54 148.50 C105.52,147.11 121.03,145.12 129.00,144.07 C157.68,140.29 162.53,139.76 164.81,140.13 C166.73,140.44 164.55,142.62 151.56,153.39 C143.00,160.47 136.00,166.72 136.00,167.26 C136.00,167.80 137.55,171.68 139.44,175.87 C141.33,180.07 143.44,185.60 144.13,188.17 C145.30,192.57 145.23,193.06 142.80,196.67 C141.38,198.78 138.45,202.30 136.30,204.50 C134.14,206.70 127.05,214.72 120.55,222.32 L 108.72 236.15 L 105.62 235.73 C106.02,235.49 106.53,234.88 106.92,234.15 ZM 190.89 353.21 C192.60,351.71 194.41,350.03 196.00,348.46 C197.93,346.55 200.14,344.99 200.92,345.00 C201.70,345.00 202.02,344.68 201.63,344.29 C201.24,343.91 199.48,344.29 197.71,345.15 C188.43,349.67 184.83,350.99 177.79,352.42 C157.24,356.62 140.54,352.26 123.69,338.29 C117.96,333.54 111.91,327.00 113.24,327.00 C113.42,327.00 111.85,325.22 109.61,322.85 C120.04,332.44 136.53,335.50 153.23,329.95 C168.65,324.83 179.21,314.56 215.35,269.50 C246.14,231.11 275.97,213.96 311.88,214.01 C321.33,214.03 329.96,215.30 337.79,217.83 L 330.80 218.95 C320.65,220.57 310.67,223.50 306.00,226.25 C291.85,234.58 284.53,240.93 274.44,253.65 C268.76,260.81 262.00,270.75 262.00,271.94 C262.00,272.59 261.64,272.90 261.21,272.63 C260.77,272.36 260.35,273.01 260.27,274.07 C260.19,275.13 260.39,276.00 260.72,276.00 C261.04,276.00 263.70,273.82 266.73,271.08 C259.50,278.44 249.71,290.09 232.96,310.41 C213.35,334.22 199.29,348.76 192.50,352.25 C192.00,352.51 191.44,352.84 190.89,353.21 ZM 482.30 179.19 C480.44,179.26 477.92,179.30 474.52,179.34 C463.10,179.48 461.49,179.71 461.20,181.22 C460.98,182.36 462.24,183.75 464.09,184.89 C462.32,183.91 461.00,182.79 461.00,181.95 C461.00,179.75 463.20,176.86 464.49,177.36 C465.23,177.64 466.07,177.25 466.36,176.50 C466.72,175.58 466.00,175.02 464.20,174.81 C463.90,174.78 463.62,174.73 463.36,174.66 C463.47,174.64 463.58,174.61 463.68,174.57 C464.50,174.26 468.05,174.00 471.58,174.00 C474.79,174.00 476.78,173.72 477.65,173.04 C477.34,173.98 476.48,174.64 475.08,174.84 C473.76,175.03 472.08,175.78 471.35,176.51 C470.25,177.60 470.66,177.92 473.76,178.39 C475.77,178.69 479.56,179.05 482.30,179.19 ZM 340.05 152.92 C339.64,152.98 339.16,153.00 338.60,153.00 C335.06,153.00 333.00,154.51 333.00,157.09 C333.00,159.48 335.01,160.00 344.33,160.02 L 346.47 160.02 C341.36,160.10 340.86,161.24 343.84,165.12 C344.12,165.48 344.50,166.08 344.93,166.83 C344.62,166.32 344.36,165.94 344.17,165.71 C342.81,164.14 342.52,164.11 341.76,165.46 C341.21,166.44 339.47,167.00 336.98,167.00 L 336.53 167.00 C338.44,167.00 340.00,166.55 340.00,166.00 C340.00,165.45 339.55,165.00 339.00,165.00 C338.45,165.00 338.00,164.32 338.00,163.50 C338.00,162.68 337.47,162.00 336.83,162.00 C334.83,162.00 332.00,158.80 332.00,156.55 C332.00,153.30 333.78,152.16 337.96,152.72 C338.83,152.84 339.51,152.91 340.05,152.92 ZM 258.69 168.90 L 259.80 167.82 C264.16,163.57 264.86,162.43 263.78,161.35 C262.73,160.30 261.70,160.28 258.56,161.24 C255.49,162.18 254.56,162.18 254.24,161.22 C254.21,161.13 254.14,161.03 254.05,160.95 C254.16,161.04 254.23,161.14 254.26,161.25 C254.59,162.21 255.86,162.10 259.73,160.75 C262.50,159.79 265.05,159.00 265.38,159.00 C265.72,159.00 266.00,160.80 266.00,163.00 C266.00,166.72 265.80,167.00 263.19,167.00 C261.75,167.00 260.21,167.65 258.69,168.90 ZM 220.73 160.00 C217.44,160.04 214.14,160.43 213.24,160.89 C212.28,161.38 210.28,162.27 208.79,162.85 C205.28,164.24 201.67,171.25 201.77,176.50 C201.85,180.56 203.02,184.13 204.99,187.01 C201.30,182.01 200.30,175.22 203.75,168.50 C207.17,161.84 210.62,160.00 219.73,160.00 C220.07,160.00 220.41,160.00 220.73,160.00 ZM 254.41 181.32 C254.35,185.82 254.24,190.51 254.16,191.75 C254.24,190.51 254.35,185.78 254.41,181.24 L 254.50 172.98 L 256.84 170.71 C254.67,173.09 254.49,174.29 254.41,181.32 ZM 325.85 194.37 C324.13,193.86 324.03,192.58 323.78,180.78 C323.56,170.52 323.51,168.24 322.31,167.46 C323.51,168.23 323.56,170.48 323.78,180.50 C323.99,189.88 324.19,193.30 325.85,194.37 ZM 165.49 366.84 C170.43,365.21 176.63,362.56 179.25,360.94 C181.88,359.32 184.30,358.00 184.63,358.00 C184.92,358.00 185.90,357.33 187.25,356.27 C186.29,357.25 185.25,358.00 184.83,358.00 C184.35,358.00 182.07,359.19 179.76,360.65 C175.75,363.18 169.31,365.79 162.90,367.65 C163.76,367.40 164.63,367.13 165.49,366.84 ZM 230.53 162.05 C228.33,160.87 225.69,160.19 222.64,160.03 C226.59,160.15 228.26,160.61 230.53,162.05 ZM 488.06 339.75 C488.31,311.90 487.75,273.10 486.50,265.94 C487.77,273.24 488.33,312.00 488.06,339.75 ZM 471.31 166.11 C473.42,166.13 474.33,166.70 475.84,168.31 C475.97,168.46 476.10,168.60 476.22,168.74 C476.09,168.60 475.96,168.46 475.83,168.31 C474.72,167.13 473.14,166.39 471.31,166.11 ZM 461.15 171.61 C461.16,170.11 461.80,168.89 463.04,167.99 C462.06,168.95 461.35,170.32 461.15,171.61 ZM 56.88 223.34 C57.93,223.90 59.28,224.44 60.65,224.81 C63.32,225.53 68.65,226.99 72.50,228.06 C68.65,226.99 63.29,225.52 60.60,224.81 C59.04,224.39 57.84,223.97 56.88,223.34 ZM 331.01 194.53 C330.86,194.58 330.69,194.62 330.50,194.65 C330.04,194.73 329.43,194.76 328.79,194.75 C329.02,194.73 329.25,194.71 329.50,194.69 ZM 152.42 369.95 C154.54,369.65 156.83,369.21 159.20,368.64 C156.82,369.22 154.52,369.67 152.42,369.95 ZM 253.63 160.66 C252.82,160.26 251.32,160.00 249.57,160.00 C251.34,160.00 252.82,160.25 253.63,160.66 Z" fill="rgb(91,67,45)"/>
<path d="M 258.69 168.90 C260.21,167.65 261.75,167.00 263.19,167.00 C265.80,167.00 266.00,166.72 266.00,163.00 C266.00,160.80 265.72,159.00 265.38,159.00 C265.05,159.00 262.50,159.79 259.73,160.75 C259.32,160.89 258.94,161.02 258.59,161.14 C258.82,160.99 259.04,160.82 259.23,160.63 C261.27,158.59 264.93,157.69 266.36,158.88 C267.07,159.47 269.27,159.67 271.33,159.33 C274.29,158.85 275.14,158.21 275.60,156.12 C276.71,151.02 276.86,150.87 280.74,151.19 C282.51,151.34 283.46,151.48 284.00,152.00 C283.44,151.53 282.44,151.50 280.50,151.50 C276.52,151.50 276.50,151.52 276.20,155.69 C275.93,159.40 275.59,159.91 273.20,160.19 C271.09,160.43 270.43,161.11 270.18,163.25 C269.90,165.72 270.18,166.00 272.93,166.00 L 276.00 166.00 L 276.00 174.88 C276.00,179.76 276.29,185.18 276.64,186.93 C276.97,188.60 277.93,190.11 279.26,191.34 C276.50,188.95 275.89,186.04 275.14,176.06 L 274.50 167.62 L 271.11 166.75 C268.91,166.18 267.36,166.24 266.66,166.94 C266.08,167.52 264.19,168.00 262.47,168.00 C260.81,168.00 259.27,168.57 257.89,169.68 ZM 245.30 160.00 L 245.56 176.75 C245.68,185.10 245.82,192.17 245.89,193.52 L 245.61 193.50 L 245.30 160.00 ZM 254.41 181.32 C254.46,176.46 254.56,174.39 255.34,172.79 C254.61,174.37 254.46,176.54 254.41,181.33 C254.35,185.94 254.36,188.91 254.20,190.79 C254.28,188.86 254.36,185.02 254.41,181.32 ZM 282.94 193.72 C286.21,195.15 290.07,195.42 292.88,193.94 C290.17,195.37 286.36,195.28 282.94,193.72 ZM 253.63 160.66 L 253.63 160.66 C253.53,160.61 253.43,160.57 253.31,160.52 C252.47,160.21 251.16,160.01 249.65,160.00 C251.85,160.00 253.68,160.38 253.96,160.87 C253.87,160.80 253.76,160.73 253.63,160.66 ZM 251.68 193.96 C252.54,193.90 253.10,193.76 253.47,193.51 C253.39,193.59 253.31,193.65 253.22,193.71 C252.85,193.95 252.35,193.99 251.68,193.96 Z" fill="rgb(185,174,164)"/>
<path d="M 0.00 250.00 L 0.00 0.00 L 250.00 0.00 L 500.00 0.00 L 500.00 250.00 L 500.00 500.00 L 250.00 500.00 L 0.00 500.00 L 0.00 250.00 ZM 151.50 370.06 C160.30,369.08 173.24,364.77 179.76,360.65 C182.07,359.19 184.35,358.00 184.83,358.00 C185.30,358.00 186.55,357.05 187.59,355.90 C188.64,354.74 190.85,353.10 192.50,352.25 C199.29,348.76 213.35,334.22 232.96,310.41 C267.71,268.24 272.50,263.44 286.64,256.75 C292.55,253.95 294.80,253.45 302.84,253.15 C309.97,252.88 313.27,253.21 316.75,254.54 C326.51,258.27 332.86,267.22 334.97,280.22 C335.54,283.75 335.99,304.54 335.99,327.75 L 336.00 369.00 L 357.93 369.00 L 379.86 369.00 L 380.18 323.75 L 380.50 278.50 L 383.30 272.50 C387.66,263.16 390.07,260.17 396.00,256.71 C401.33,253.60 401.86,253.50 413.00,253.50 C425.90,253.50 428.01,254.21 434.42,260.68 C439.00,265.31 441.64,271.05 442.98,279.30 C443.54,282.74 443.99,304.05 443.99,327.19 L 444.00 368.89 L 464.75 369.19 C476.16,369.36 486.06,369.11 486.75,368.63 C488.73,367.24 488.51,277.45 486.50,265.94 C483.91,251.14 478.40,239.70 469.80,231.29 C464.90,226.50 450.60,218.00 447.44,218.00 C446.28,218.00 445.00,217.66 444.59,217.25 C444.18,216.84 439.49,215.78 434.17,214.90 C425.73,213.50 423.17,213.46 414.00,214.62 C408.23,215.34 401.43,216.59 398.90,217.38 C389.76,220.23 377.67,227.28 370.91,233.69 L 367.32 237.09 L 363.91 233.72 C350.62,220.57 333.38,214.04 311.88,214.01 C275.97,213.96 246.14,231.11 215.35,269.50 C179.21,314.56 168.65,324.83 153.23,329.95 C131.19,337.27 109.50,329.60 101.66,311.72 C97.68,302.65 96.72,297.62 97.21,288.27 C97.57,281.26 98.27,278.20 100.67,273.00 C108.22,256.65 125.15,247.48 143.06,250.01 C152.48,251.34 159.43,255.11 167.17,263.11 L 174.02 270.18 L 179.26 266.73 C182.14,264.84 188.77,260.54 194.00,257.18 C199.23,253.83 204.32,250.50 205.32,249.79 C207.02,248.58 206.87,248.13 202.97,242.50 C192.19,226.94 173.87,216.32 152.06,212.99 L 143.61 211.70 L 136.95 219.10 C133.29,223.17 126.49,231.00 121.85,236.50 C117.20,241.99 112.56,246.65 111.54,246.85 C110.51,247.05 107.83,246.69 105.58,246.04 C94.14,242.78 74.20,237.93 72.37,237.97 C70.51,238.02 60.84,252.86 57.75,260.42 C49.83,279.86 49.26,298.86 56.03,318.75 C59.83,329.93 63.97,336.76 72.36,345.67 C85.96,360.13 103.30,368.53 124.50,370.94 C132.54,371.85 136.74,371.72 151.50,370.06 ZM 271.76 325.75 C271.93,298.80 271.67,283.00 271.06,283.00 C269.31,283.00 230.36,330.18 228.30,334.80 C226.84,338.06 226.54,367.14 227.95,368.55 C228.52,369.12 237.36,369.30 250.20,369.00 L 271.50 368.50 L 271.76 325.75 ZM 32.60 315.60 C33.04,314.46 31.54,300.65 27.60,269.50 C27.37,267.68 28.01,265.20 29.22,263.20 C31.72,259.08 31.04,254.60 27.49,251.81 L 24.97 249.83 L 25.23 224.16 L 25.50 198.50 L 37.77 198.22 C47.08,198.01 50.13,198.25 50.41,199.22 C50.61,199.92 51.33,204.32 52.02,209.00 C53.85,221.61 54.74,223.25 60.60,224.81 C63.29,225.52 68.65,226.99 72.50,228.06 C76.35,229.13 80.55,230.00 81.82,230.00 C83.10,230.00 87.38,231.08 91.32,232.39 C95.27,233.70 100.80,235.09 103.61,235.46 L 108.72 236.15 L 120.55 222.32 C127.05,214.72 134.14,206.70 136.30,204.50 C138.45,202.30 141.38,198.78 142.80,196.67 C145.23,193.06 145.30,192.57 144.13,188.17 C143.44,185.60 141.33,180.07 139.44,175.87 C137.55,171.68 136.00,167.80 136.00,167.26 C136.00,166.72 143.00,160.47 151.56,153.39 C164.55,142.62 166.73,140.44 164.81,140.13 C162.53,139.76 157.68,140.29 129.00,144.07 C121.03,145.12 105.52,147.11 94.54,148.50 L 74.57 151.02 L 56.94 162.76 C47.24,169.22 32.37,179.09 23.90,184.70 C1.92,199.25 3.11,197.90 12.25,197.96 C17.72,197.99 20.02,198.37 20.06,199.25 C20.10,199.94 20.07,211.75 20.01,225.50 L 19.88 250.50 L 17.44 253.05 C14.67,255.96 14.32,259.78 16.44,263.89 C17.73,266.38 17.57,269.21 14.90,290.50 C13.25,303.60 12.14,314.92 12.42,315.66 C13.18,317.63 31.84,317.57 32.60,315.60 ZM 359.75 204.25 C362.51,201.86 370.00,188.74 370.00,186.29 C370.00,185.81 372.25,180.10 375.00,173.60 C377.75,167.10 380.00,161.38 380.00,160.89 C380.00,160.40 378.18,160.00 375.95,160.00 C371.43,160.00 371.56,159.81 366.08,174.42 C364.66,178.22 362.97,181.51 362.34,181.72 C361.69,181.94 360.25,179.55 359.06,176.30 C357.89,173.11 355.93,168.15 354.72,165.27 L 352.50 160.03 L 344.33 160.02 C335.01,160.00 333.00,159.48 333.00,157.09 C333.00,154.51 335.06,153.00 338.60,153.00 C341.27,153.00 341.98,152.49 342.86,149.96 C343.83,147.18 343.71,146.84 341.40,145.96 C337.91,144.64 334.51,144.76 330.72,146.35 C326.42,148.14 325.07,149.95 324.19,155.14 C323.55,158.95 323.10,159.54 320.67,159.82 C318.20,160.11 317.92,160.50 318.19,163.28 C318.43,165.69 319.09,166.56 321.00,167.00 C323.49,167.59 323.50,167.63 323.78,180.78 C324.05,193.49 324.14,194.00 326.28,194.48 C327.50,194.76 329.40,194.84 330.50,194.65 C332.37,194.33 332.52,193.42 332.78,180.66 L 333.06 167.00 L 336.98 167.00 C339.47,167.00 341.21,166.44 341.76,165.46 C342.52,164.11 342.81,164.14 344.17,165.71 C345.02,166.70 347.09,170.65 348.78,174.50 C350.46,178.35 353.00,184.14 354.42,187.37 C357.52,194.42 357.61,196.14 355.03,198.48 C353.53,199.83 352.12,200.11 349.19,199.65 C345.75,199.10 345.17,199.31 343.94,201.61 C342.70,203.93 342.75,204.35 344.47,205.60 C345.52,206.37 348.68,207.00 351.48,207.00 C355.60,207.00 357.18,206.47 359.75,204.25 ZM 188.77 193.45 C192.90,191.73 197.00,188.26 197.00,186.49 C197.00,185.86 195.91,184.75 194.58,184.04 C192.47,182.91 191.70,183.02 188.71,184.87 C184.88,187.24 180.97,187.59 177.73,185.85 C169.85,181.64 170.39,169.37 178.55,167.11 C183.00,165.89 185.72,166.39 188.44,168.94 C190.57,170.94 190.57,170.94 193.86,168.94 C197.71,166.60 197.55,165.32 193.03,162.25 C190.32,160.42 188.33,160.00 182.30,160.00 C172.00,160.00 166.73,163.16 164.14,170.90 C159.16,185.77 174.19,199.54 188.77,193.45 ZM 227.31 193.93 C232.70,192.44 235.38,189.58 233.93,186.88 C233.03,185.19 232.23,184.92 229.66,185.46 C218.44,187.79 213.84,186.86 212.12,181.91 C211.03,178.78 211.28,178.59 216.00,178.95 C220.65,179.30 236.38,178.88 237.19,178.38 C238.48,177.58 238.13,172.55 236.50,168.66 C235.68,166.69 233.32,163.93 231.27,162.54 C228.06,160.36 226.44,160.00 219.73,160.00 C210.62,160.00 207.17,161.84 203.75,168.50 C196.12,183.38 210.28,198.66 227.31,193.93 ZM 294.02 193.18 C295.93,191.64 296.09,191.04 295.10,189.18 C294.31,187.71 292.99,187.00 291.02,187.00 C286.52,187.00 285.00,183.92 285.00,174.83 L 285.00 167.11 L 289.25 166.81 C293.25,166.52 293.52,166.31 293.82,163.21 C294.12,160.02 294.03,159.94 290.57,160.17 C286.25,160.46 285.24,159.55 284.82,155.00 C284.52,151.74 284.24,151.48 280.74,151.19 C276.86,150.87 276.71,151.02 275.60,156.12 C275.14,158.21 274.29,158.85 271.33,159.33 C269.27,159.67 267.07,159.47 266.36,158.88 C264.93,157.69 261.27,158.59 259.23,160.63 C257.64,162.22 254.00,162.47 254.00,161.00 C254.00,160.45 252.04,160.00 249.65,160.00 L 245.30 160.00 L 245.46 176.75 L 245.61 193.50 L 249.81 193.81 C254.59,194.16 254.25,195.09 254.41,181.33 C254.49,174.13 254.79,172.86 256.92,170.58 C258.53,168.87 260.41,168.00 262.47,168.00 C264.19,168.00 266.08,167.52 266.66,166.94 C267.36,166.24 268.91,166.18 271.11,166.75 L 274.50 167.62 L 275.14 176.06 C276.01,187.73 276.71,189.73 280.86,192.55 C285.19,195.50 290.83,195.77 294.02,193.18 ZM 311.77 177.25 L 312.05 160.00 L 307.27 160.00 L 302.50 160.00 L 302.79 176.25 C302.96,185.19 303.29,193.09 303.54,193.81 C303.83,194.66 305.31,195.01 307.74,194.81 L 311.50 194.50 L 311.77 177.25 ZM 393.42 194.39 C394.72,193.89 395.00,191.97 395.00,183.64 C395.01,175.30 395.36,172.92 396.99,170.25 C398.67,167.49 399.55,167.00 402.83,167.00 C409.32,167.00 410.42,169.17 410.61,182.33 C410.70,188.47 411.17,193.54 411.64,193.59 C412.11,193.63 413.26,194.01 414.19,194.42 C415.12,194.83 416.70,195.01 417.69,194.82 C419.29,194.52 419.56,193.02 420.00,182.16 C420.43,171.45 420.76,169.65 422.44,168.42 C425.91,165.89 431.46,166.79 434.14,170.32 C434.21,170.42 434.55,175.90 434.89,182.50 L 435.50 194.50 L 439.50 194.45 L 443.50 194.40 L 443.56 180.50 C443.62,166.96 443.56,166.53 441.06,163.75 C439.58,162.10 436.82,160.52 434.51,160.00 C429.83,158.95 422.41,160.32 419.76,162.72 C418.12,164.21 417.81,164.17 415.74,162.27 C412.47,159.27 406.36,158.56 400.58,160.53 C397.13,161.70 395.45,161.85 394.68,161.08 C394.09,160.49 391.89,160.00 389.80,160.00 L 386.00 160.00 L 386.00 176.92 C386.00,189.51 386.32,193.96 387.25,194.34 C389.06,195.07 391.60,195.09 393.42,194.39 ZM 478.50 193.14 C484.34,190.48 485.49,188.75 482.96,186.46 C481.21,184.88 480.48,184.79 477.64,185.81 C475.84,186.47 472.81,187.00 470.93,187.00 C466.55,186.99 460.75,183.55 461.20,181.22 C461.49,179.71 463.10,179.48 474.52,179.34 C486.90,179.19 487.51,179.09 487.82,177.07 C488.28,174.06 486.11,167.90 483.63,165.15 C480.11,161.27 476.54,160.00 469.20,160.00 C463.70,160.00 461.60,160.46 458.90,162.26 C454.89,164.92 451.00,172.06 451.00,176.74 C451.00,189.74 466.13,198.76 478.50,193.14 ZM 311.59 151.51 C313.99,147.84 312.77,144.33 308.80,143.46 C306.12,142.87 305.25,143.17 303.34,145.39 C300.95,148.17 301.11,150.56 303.83,152.75 C306.35,154.78 309.81,154.22 311.59,151.51 ZM 211.61 173.43 C210.85,171.45 212.46,168.36 214.96,167.02 C221.02,163.78 231.59,169.18 227.89,173.63 C226.17,175.71 212.42,175.54 211.61,173.43 ZM 461.51 174.01 C460.24,171.97 462.00,167.95 464.59,166.96 C469.02,165.28 473.48,165.82 475.83,168.31 C479.85,172.60 478.80,174.00 471.58,174.00 C468.05,174.00 464.50,174.26 463.68,174.57 C462.87,174.88 461.89,174.63 461.51,174.01 Z" fill="rgb(254,254,254)"/>
</g>
</svg>