<svg xmlns="http://www.w3.org/2000/svg" width="854" height="854" viewBox="0 0 854 854">
<g>
<path d="M 832.50 544.49 C832.50,620.23 832.32,630.48 831.00,630.51 C830.17,630.54 813.38,630.32 793.67,630.03 L 757.84 629.50 L 757.95 562.00 C758.04,506.74 757.77,492.09 756.50,481.24 C754.86,467.22 754.59,466.23 749.64,456.06 C743.74,443.95 731.20,434.57 717.57,432.08 C697.92,428.49 677.59,434.03 666.00,446.12 C660.22,452.14 654.56,462.69 651.76,472.65 C649.59,480.38 649.55,481.66 649.23,555.26 L 648.92 630.02 L 611.21 629.76 L 573.50 629.50 L 572.91 556.00 C572.33,484.92 572.08,479.23 568.99,467.59 C563.97,448.70 550.23,435.31 532.57,432.08 C513.46,428.59 494.84,433.22 475.50,446.28 C468.24,451.17 454.33,462.93 447.54,469.90 C442.04,475.55 438.59,476.93 441.68,472.25 C442.68,470.73 443.95,468.75 444.50,467.84 C448.10,461.90 462.98,440.64 466.45,436.50 C468.74,433.75 471.31,430.49 472.15,429.27 C474.44,425.90 485.64,414.30 493.46,407.20 C516.41,386.36 547.28,373.63 574.50,373.79 C584.25,373.84 584.70,373.94 592.50,378.03 C602.87,383.46 611.08,389.34 619.62,397.45 C623.40,401.04 626.91,403.99 627.40,403.99 C627.90,404.00 629.93,402.29 631.90,400.21 C633.88,398.12 637.35,394.98 639.61,393.23 C665.01,373.59 691.27,364.47 722.00,364.62 C735.47,364.68 754.58,367.46 759.24,370.04 C760.19,370.57 761.85,371.00 762.93,371.00 C764.00,371.00 765.14,371.42 765.45,371.92 C765.77,372.43 767.40,373.15 769.08,373.52 C770.77,373.89 774.70,375.66 777.82,377.45 C780.95,379.24 785.04,381.56 786.92,382.60 C792.25,385.57 793.98,386.98 802.05,395.00 C815.80,408.65 825.27,426.68 830.29,448.77 C832.47,458.40 832.50,459.38 832.50,544.49 ZM 464.00 482.25 L 464.00 630.00 L 426.67 630.00 C406.13,630.00 389.03,629.70 388.67,629.33 C387.56,628.23 387.89,574.41 389.03,571.43 C389.59,569.95 392.63,565.70 395.78,562.00 C403.28,553.18 410.34,544.57 419.25,533.42 C423.24,528.42 427.96,522.57 429.75,520.42 C448.01,498.40 454.09,491.00 457.56,486.63 C461.17,482.06 464.00,480.14 464.00,482.25 ZM 183.51 401.05 C183.79,402.67 183.68,403.95 183.26,403.88 C182.84,403.82 168.77,400.29 152.00,396.03 C135.23,391.77 115.35,386.83 107.83,385.04 C91.44,381.13 92.96,383.12 89.01,360.50 C88.53,357.75 87.90,354.38 87.61,353.00 C87.33,351.62 86.90,347.46 86.66,343.75 L 86.23 337.00 L 124.49 337.00 C153.94,337.00 162.97,337.29 163.69,338.25 C165.33,340.45 167.70,347.19 171.00,359.00 C175.07,373.54 180.51,391.65 181.91,395.30 C182.50,396.84 183.22,399.43 183.51,401.05 ZM 266.50 630.84 C256.91,632.80 254.29,632.89 252.05,631.32 C250.85,630.48 249.00,630.03 247.93,630.31 C246.81,630.60 240.31,628.35 232.66,625.03 C215.62,617.64 216.74,618.29 207.31,610.31 C197.18,601.75 191.41,595.28 186.52,587.00 C184.42,583.42 181.91,579.35 180.96,577.95 C176.01,570.64 172.31,560.22 166.61,537.50 C165.23,531.98 163.34,505.97 164.65,510.50 C164.97,511.60 165.56,512.72 165.95,513.00 C166.35,513.28 167.23,515.75 167.91,518.50 C169.47,524.77 174.03,534.70 178.16,540.82 C180.70,544.57 190.63,556.74 192.99,559.00 C193.28,559.28 194.73,561.37 196.21,563.65 C198.87,567.77 201.09,569.82 216.50,582.48 C230.58,594.05 250.16,602.48 268.90,605.04 C279.52,606.49 285.96,606.03 302.66,602.62 C316.34,599.83 326.83,595.96 338.28,589.50 L 346.06 585.12 L 342.62 589.13 C337.76,594.81 323.86,605.74 313.69,611.89 C298.53,621.04 282.05,627.66 266.50,630.84 ZM 716.27 313.00 L 715.50 331.50 L 708.84 331.79 C704.96,331.96 701.90,331.65 701.53,331.04 C701.17,330.47 700.77,321.77 700.63,311.72 C700.41,296.01 700.12,293.01 698.52,290.31 C695.51,285.20 689.29,283.61 682.12,286.11 C676.43,288.09 675.56,291.24 675.00,312.00 L 674.50 330.50 L 667.38 330.79 C661.21,331.04 660.20,330.84 659.85,329.29 C659.62,328.31 659.45,315.35 659.47,300.50 L 659.50 273.50 L 665.88 273.68 C669.39,273.78 672.75,274.35 673.33,274.93 C674.95,276.55 678.51,276.21 682.19,274.09 C689.87,269.67 705.91,271.16 709.49,276.62 C711.54,279.75 715.05,279.67 718.94,276.40 C721.90,273.91 722.59,273.79 735.08,273.65 L 748.13 273.50 L 752.00 277.64 C754.12,279.91 756.35,283.60 756.95,285.82 C757.62,288.30 757.94,297.92 757.77,310.68 L 757.50 331.50 L 751.16 331.80 C747.68,331.96 744.29,331.65 743.63,331.11 C742.80,330.42 742.35,324.87 742.19,313.31 C742.05,304.06 741.49,294.84 740.95,292.80 C739.04,285.72 731.65,283.03 723.48,286.44 C718.02,288.72 717.15,291.95 716.27,313.00 ZM 816.23 330.44 C813.44,331.39 808.28,331.99 803.07,331.98 C787.90,331.93 778.76,326.39 772.38,313.35 C769.99,308.45 769.78,307.14 770.27,300.20 C770.68,294.41 771.47,291.33 773.47,287.78 C776.55,282.33 785.36,274.00 788.05,274.00 C789.06,274.00 790.16,273.55 790.50,273.00 C790.85,272.44 795.58,272.00 801.31,272.01 C813.20,272.02 818.95,274.09 825.20,280.63 C830.06,285.71 831.73,290.00 832.15,298.50 L 832.50 305.50 L 810.13 305.70 C797.83,305.81 787.53,306.14 787.24,306.43 C785.86,307.80 789.76,314.48 793.01,316.31 C797.87,319.05 808.62,319.76 812.77,317.62 C817.81,315.01 822.17,315.52 825.56,319.09 L 828.50 322.18 L 824.65 325.53 C822.54,327.37 818.75,329.58 816.23,330.44 ZM 389.63 330.52 C386.83,331.35 380.87,331.98 376.07,331.95 C368.76,331.91 366.62,331.49 361.50,329.04 C350.42,323.76 343.98,313.60 343.80,301.14 C343.73,296.02 344.29,293.85 347.05,288.40 C353.05,276.58 361.01,272.00 375.53,272.00 C384.70,272.00 390.42,273.47 389.59,275.62 C389.28,276.42 389.70,277.00 390.59,277.00 C391.43,277.00 391.88,277.39 391.59,277.86 C391.29,278.34 392.05,278.68 393.28,278.63 C396.79,278.48 401.69,282.85 403.97,288.16 C405.82,292.45 405.93,293.54 404.87,297.27 C402.74,304.84 402.91,304.78 380.80,305.19 C369.97,305.39 360.83,305.83 360.50,306.17 C359.28,307.39 362.85,313.75 366.01,316.01 C370.25,319.02 382.41,320.06 386.10,317.72 C387.42,316.88 389.96,315.89 391.76,315.52 C394.62,314.92 395.45,315.29 398.67,318.61 L 402.33 322.38 L 398.48 325.70 C396.36,327.53 392.38,329.70 389.63,330.52 ZM 610.78 351.60 C606.26,353.96 597.19,354.28 591.50,352.27 C585.71,350.22 585.00,348.54 587.56,342.88 C588.98,339.72 589.82,339.00 592.09,339.00 C593.63,339.00 595.16,339.45 595.50,340.00 C596.64,341.84 603.59,341.11 606.48,338.84 C608.92,336.92 609.17,336.17 608.77,332.09 C608.52,329.57 607.12,324.98 605.66,321.90 C604.20,318.83 603.00,315.98 603.00,315.59 C603.00,315.20 600.75,310.16 598.00,304.40 C595.25,298.64 593.00,293.49 593.00,292.95 C593.00,292.41 592.58,291.19 592.07,290.24 C591.56,289.28 590.14,286.25 588.92,283.50 C587.69,280.75 586.26,277.66 585.74,276.63 C585.05,275.25 585.12,274.95 586.01,275.51 C586.68,275.92 587.57,275.70 587.99,275.02 C588.40,274.34 591.64,273.56 595.18,273.27 L 601.62 272.76 L 604.71 280.13 C608.37,288.88 613.35,302.01 614.98,307.25 C615.77,309.77 616.75,311.00 617.96,311.00 C620.25,311.00 623.00,306.88 623.00,303.46 C623.00,302.03 623.67,300.18 624.50,299.36 C625.33,298.53 626.00,296.57 626.00,294.99 C626.00,293.41 626.45,291.84 627.00,291.50 C627.55,291.16 628.00,290.20 628.00,289.38 C628.00,288.55 629.12,285.41 630.50,282.41 C631.88,279.40 633.00,276.57 633.00,276.13 C633.00,275.68 633.82,274.57 634.83,273.65 C637.28,271.44 649.00,271.26 649.00,273.45 C649.00,274.24 646.26,281.56 642.92,289.70 C639.58,297.84 633.92,311.70 630.34,320.50 C621.75,341.65 617.80,347.92 610.78,351.60 ZM 322.48 330.35 C314.08,333.21 300.27,332.18 293.16,328.16 C289.53,326.11 285.03,320.79 284.36,317.77 C284.03,316.26 283.44,315.23 283.06,315.46 C281.52,316.41 278.98,311.70 278.14,306.35 C277.27,300.77 278.19,294.33 280.78,287.91 C282.50,283.65 288.38,278.17 294.63,275.00 C299.92,272.32 301.44,272.02 310.10,272.01 C319.65,272.00 325.30,273.17 327.82,275.68 C328.55,276.41 329.48,277.00 329.89,277.00 C331.69,277.00 337.21,283.00 336.68,284.39 C336.37,285.20 333.74,287.01 330.83,288.40 C325.71,290.85 325.49,290.87 323.52,289.11 C317.59,283.81 307.18,282.92 300.32,287.13 C296.02,289.76 293.52,296.34 294.31,302.95 C295.59,313.78 300.55,318.29 311.82,318.86 C318.54,319.20 319.38,319.02 321.83,316.71 C323.88,314.78 325.43,314.24 328.50,314.40 C331.15,314.53 332.41,315.03 332.23,315.87 C332.07,316.57 332.30,316.93 332.74,316.66 C333.17,316.40 334.39,316.81 335.45,317.59 C337.29,318.93 337.15,319.22 332.35,323.85 C329.26,326.83 325.45,329.34 322.48,330.35 ZM 567.49 331.01 C566.58,332.49 554.28,332.26 553.33,330.75 C552.90,330.06 552.69,320.03 552.87,308.45 L 552.88 307.94 C553.13,291.95 553.20,287.32 551.05,285.77 C550.15,285.12 548.85,285.01 547.02,284.83 C543.80,284.52 543.49,284.18 542.70,280.17 C541.56,274.36 542.25,273.00 546.31,273.00 C550.88,273.00 553.00,270.44 553.00,264.92 C553.01,259.73 555.41,255.32 560.22,251.65 C563.76,248.94 567.51,248.48 580.00,249.19 L 585.50 249.50 L 585.37 253.00 C585.29,254.93 584.75,257.71 584.16,259.19 C583.19,261.64 582.80,261.80 579.95,260.99 C573.29,259.08 568.00,262.30 568.00,268.27 C568.00,270.59 568.67,271.38 571.71,272.65 C573.75,273.50 576.92,274.20 578.76,274.20 L 582.10 274.20 L 581.80 279.35 L 581.50 284.50 L 574.74 284.80 L 567.98 285.09 L 568.04 307.56 C568.07,319.92 567.83,330.47 567.49,331.01 ZM 504.55 329.88 C502.42,332.01 485.85,332.55 481.66,330.63 C477.29,328.62 473.00,324.09 473.00,321.47 C473.00,320.18 472.55,318.84 472.00,318.50 C471.41,318.13 470.99,311.89 470.99,303.19 C470.97,284.58 470.82,284.00 466.08,284.00 C464.06,284.00 461.86,283.46 461.20,282.80 C459.62,281.22 459.65,275.03 461.25,274.59 C461.94,274.39 464.30,273.85 466.50,273.37 L 470.50 272.50 L 471.00 265.63 L 471.50 258.77 L 478.25 258.83 C481.96,258.86 485.45,258.91 486.00,258.94 C486.55,258.98 487.00,261.69 487.00,264.98 C487.00,270.08 487.33,271.16 489.25,272.38 C490.49,273.17 493.08,273.81 495.00,273.81 C495.35,273.81 495.68,273.81 495.99,273.81 C499.33,273.80 500.85,273.79 501.50,274.54 C502.05,275.18 501.98,276.34 501.85,278.49 C501.83,278.73 501.82,278.98 501.80,279.25 L 501.50 284.50 L 494.18 284.80 L 486.86 285.09 L 487.18 299.94 C487.57,317.98 487.97,318.75 497.22,319.21 L 503.21 319.50 L 504.69 323.88 C506.02,327.83 506.00,328.42 504.55,329.88 ZM 434.17 313.75 L 433.83 331.00 L 427.08 331.00 C423.37,331.00 420.03,330.70 419.67,330.33 C419.30,329.97 419.00,316.92 419.00,301.33 L 419.00 273.00 L 425.93 273.00 C432.36,273.00 432.88,273.16 433.18,275.25 C433.42,276.96 434.17,277.51 436.32,277.55 C437.87,277.57 439.34,277.26 439.59,276.86 C440.50,275.39 446.20,273.09 450.59,272.43 L 455.10 271.76 L 454.80 278.63 L 454.50 285.50 L 449.50 286.13 C442.59,287.01 439.33,288.74 436.73,292.92 C434.69,296.19 434.47,297.98 434.17,313.75 ZM 532.77 302.82 L 532.50 331.50 L 525.74 331.80 C520.87,332.01 518.85,331.73 518.54,330.80 C516.83,325.68 515.98,289.80 517.45,284.68 C517.97,282.87 517.82,281.03 517.03,279.56 C514.05,273.99 517.25,272.18 527.74,273.49 L 533.03 274.15 ZM 790.00 298.81 C791.03,299.19 796.74,299.40 802.68,299.27 C811.55,299.08 813.73,298.73 814.75,297.33 C816.97,294.30 816.19,290.92 812.47,287.41 C808.66,283.81 803.90,282.42 798.75,283.39 C788.67,285.30 782.57,296.05 790.00,298.81 ZM 360.90 296.39 C361.73,297.38 365.05,297.59 374.75,297.27 C389.58,296.79 390.00,296.70 390.00,294.08 C390.00,284.74 374.78,279.81 365.49,286.13 C361.56,288.80 359.13,294.25 360.90,296.39 ZM 527.68 262.00 C526.85,262.00 525.56,262.18 524.83,262.41 C524.10,262.63 522.01,262.39 520.18,261.86 C517.70,261.15 516.46,259.97 515.31,257.20 C513.87,253.77 513.89,253.25 515.63,250.00 C517.49,246.53 517.56,246.50 524.34,246.48 C528.09,246.47 531.38,246.80 531.63,247.22 C531.89,247.64 531.29,247.67 530.30,247.30 C528.73,246.71 528.67,246.84 529.85,248.28 C530.59,249.19 531.49,249.90 531.85,249.85 C536.05,249.29 536.20,254.51 532.10,258.89 C530.50,260.60 528.51,262.00 527.68,262.00 Z" fill="rgb(74,51,32)"/>
<path d="M 253.50 632.90 C221.51,637.01 190.06,632.49 163.50,619.97 C136.45,607.21 113.61,585.23 101.86,560.65 C100.24,557.27 98.58,553.83 98.16,553.00 C97.75,552.17 96.58,548.80 95.56,545.50 C94.55,542.20 93.36,538.60 92.93,537.50 C86.67,521.66 85.89,485.67 91.37,464.92 C95.75,448.30 101.51,435.58 111.52,420.50 C121.14,405.99 121.48,405.68 127.42,406.37 C130.13,406.69 132.81,407.41 133.37,407.97 C133.94,408.54 135.41,409.00 136.64,409.00 C137.87,409.00 139.13,409.40 139.43,409.88 C139.73,410.37 142.57,411.07 145.74,411.45 C151.17,412.09 155.92,413.26 160.50,415.07 C161.60,415.50 164.30,416.15 166.50,416.52 C168.70,416.88 170.95,417.54 171.50,417.98 C172.05,418.42 174.30,419.01 176.50,419.31 C178.70,419.60 182.52,420.29 185.00,420.84 C190.96,422.16 194.36,420.53 199.53,413.85 C203.01,409.34 208.42,402.99 232.87,374.71 C235.83,371.30 239.54,367.00 241.12,365.16 C243.85,361.98 244.25,361.84 249.25,362.35 C252.14,362.64 256.98,363.33 260.00,363.88 C263.02,364.43 268.20,365.37 271.50,365.96 C277.53,367.04 280.81,368.05 286.65,370.62 C288.38,371.38 290.50,372.00 291.34,372.00 C292.19,372.00 293.16,372.45 293.50,373.00 C293.84,373.55 294.99,374.00 296.06,374.00 C297.13,374.00 298.00,374.45 298.00,375.00 C298.00,375.55 298.56,376.00 299.25,376.01 C299.94,376.01 301.85,376.75 303.50,377.64 C305.15,378.54 307.85,379.96 309.50,380.79 C321.80,387.03 339.75,403.64 348.64,417.01 L 353.44 424.22 L 351.30 425.86 C350.12,426.76 343.61,431.01 336.83,435.29 C330.05,439.58 318.22,447.11 310.54,452.04 C302.87,456.97 296.26,461.00 295.86,461.00 C295.47,461.00 294.23,459.76 293.11,458.25 C285.99,448.66 283.80,446.28 277.66,441.42 C264.11,430.72 250.61,426.02 233.50,426.05 C222.24,426.07 214.43,427.72 204.94,432.09 C186.85,440.41 173.12,456.93 167.87,476.70 C165.23,486.67 164.94,505.20 167.27,515.70 C169.17,524.24 173.41,533.75 179.00,541.99 C178.67,541.55 178.39,541.15 178.16,540.82 C174.03,534.70 169.47,524.77 167.91,518.50 C167.23,515.75 166.35,513.28 165.95,513.00 C165.56,512.72 164.97,511.60 164.65,510.50 C163.34,505.97 165.23,531.98 166.61,537.50 C172.31,560.22 176.01,570.64 180.96,577.95 C181.91,579.35 184.42,583.42 186.52,587.00 C191.41,595.28 197.18,601.75 207.31,610.31 C216.74,618.29 215.62,617.64 232.66,625.03 C240.31,628.35 246.81,630.60 247.93,630.31 C249.00,630.03 250.85,630.48 252.05,631.32 C253.32,632.21 254.72,632.57 257.44,632.35 C256.14,632.55 254.82,632.73 253.50,632.90 ZM 183.51 401.05 C183.22,399.43 182.50,396.84 181.91,395.30 C180.51,391.65 175.07,373.54 171.00,359.00 C167.70,347.19 165.33,340.45 163.69,338.25 C162.97,337.29 153.94,337.00 124.49,337.00 L 86.23 337.00 L 86.51 341.41 C86.27,340.32 86.02,339.53 85.79,339.25 C85.02,338.32 79.36,338.00 63.88,338.00 C47.89,338.00 42.98,338.29 42.92,339.25 C42.87,339.94 42.83,359.84 42.83,383.47 L 42.81 426.44 L 46.50 429.82 C53.48,436.21 54.44,442.94 49.27,449.09 L 46.71 452.14 L 47.92 464.32 C49.51,480.27 50.60,489.88 52.47,504.50 C55.82,530.74 56.39,539.14 54.89,540.09 C54.13,540.57 46.44,540.98 37.82,540.98 C19.24,541.00 18.70,540.76 20.21,533.30 C21.60,526.48 22.91,516.23 24.01,503.50 C24.54,497.45 25.43,490.87 25.99,488.88 C26.54,486.90 27.00,482.93 27.00,480.07 C27.00,477.21 27.43,474.07 27.95,473.08 C28.48,472.10 29.04,467.07 29.20,461.90 C29.49,452.96 29.36,452.30 26.67,448.50 C22.68,442.87 23.49,438.13 29.50,432.00 L 33.90 427.50 L 34.07 383.84 C34.16,359.83 33.93,339.69 33.56,339.09 C33.13,338.40 28.50,338.00 20.94,338.00 C13.54,338.00 9.00,337.61 9.00,336.99 C9.00,336.43 12.49,333.77 16.75,331.07 C21.01,328.38 25.85,325.22 27.50,324.06 C31.53,321.21 66.64,297.77 68.79,296.48 C70.51,295.46 115.39,265.41 121.33,261.31 C123.07,260.10 125.20,259.09 126.05,259.06 C126.90,259.03 128.11,258.49 128.73,257.87 C129.34,257.26 133.82,256.37 138.68,255.90 C143.53,255.43 150.65,254.59 154.50,254.03 C158.35,253.47 166.68,252.54 173.00,251.96 C179.32,251.38 185.28,250.47 186.24,249.95 C187.19,249.43 190.39,249.00 193.34,249.00 C196.29,249.00 200.01,248.56 201.60,248.01 C203.20,247.47 209.00,246.58 214.50,246.03 C220.00,245.48 227.65,244.58 231.50,244.03 C235.35,243.48 243.45,242.58 249.50,242.03 C255.55,241.49 262.08,240.60 264.00,240.06 C268.64,238.77 285.18,237.98 284.80,239.07 C284.63,239.54 274.15,248.55 261.50,259.10 C248.85,269.65 236.80,279.75 234.72,281.55 L 230.94 284.82 L 235.52 294.66 C241.82,308.20 241.61,307.73 244.49,314.99 C247.88,323.57 248.54,328.10 246.86,331.29 C246.11,332.70 232.23,349.04 216.00,367.61 C199.77,386.17 186.05,401.96 185.50,402.69 C185.31,402.94 184.77,403.05 183.66,402.98 C183.69,402.47 183.64,401.80 183.51,401.05 ZM 282.73 626.40 C293.19,622.83 303.73,617.90 313.69,611.89 C323.86,605.74 337.76,594.81 342.62,589.13 L 346.06 585.12 L 338.28 589.50 C326.83,595.96 316.34,599.83 302.66,602.62 C285.96,606.03 279.52,606.49 268.90,605.04 C250.16,602.48 230.58,594.05 216.50,582.48 C201.09,569.82 198.87,567.77 196.21,563.65 C194.73,561.37 193.28,559.28 192.99,559.00 C191.32,557.41 185.88,550.87 181.94,545.84 C188.49,553.54 198.63,560.64 209.50,565.00 C214.38,566.96 233.18,569.24 239.22,568.61 C246.00,567.90 254.29,566.24 257.50,564.96 C258.60,564.52 261.75,563.34 264.50,562.35 C284.29,555.22 307.45,534.06 341.50,492.01 C344.25,488.61 349.42,482.33 353.00,478.05 C356.58,473.77 361.30,467.88 363.50,464.97 C365.70,462.06 370.65,456.09 374.50,451.69 C378.35,447.30 383.35,441.41 385.62,438.60 C394.63,427.46 429.98,396.00 433.50,396.00 C433.79,396.00 436.38,394.34 439.26,392.31 C445.56,387.87 460.58,380.01 467.50,377.54 C470.25,376.56 474.30,374.96 476.50,374.00 C478.70,373.03 482.52,371.91 485.00,371.51 C487.48,371.10 489.95,370.43 490.50,370.00 C491.05,369.57 493.30,369.00 495.50,368.72 C497.70,368.45 502.65,367.67 506.50,366.99 C515.56,365.39 560.47,366.07 562.23,367.83 C562.87,368.47 564.86,369.00 566.64,369.00 C568.42,369.00 570.12,369.39 570.42,369.87 C570.71,370.35 573.17,371.03 575.88,371.39 C578.05,371.68 581.70,373.00 585.90,374.89 C583.03,373.87 580.57,373.82 574.50,373.79 C547.28,373.63 516.41,386.36 493.46,407.20 C485.64,414.30 474.44,425.90 472.15,429.27 C471.31,430.49 468.74,433.75 466.45,436.50 C462.98,440.64 448.10,461.90 444.50,467.84 C443.95,468.75 442.68,470.73 441.68,472.25 C438.59,476.93 442.04,475.55 447.54,469.90 C450.47,466.89 454.74,462.98 459.22,459.12 C450.22,467.07 441.24,476.48 432.85,486.90 C430.46,489.87 427.15,493.97 425.50,496.03 C406.45,519.72 376.47,555.65 368.40,564.44 C337.91,597.67 312.00,616.74 282.73,626.40 ZM 404.87 297.27 C405.47,295.17 405.69,293.90 405.44,292.43 C406.19,294.89 406.68,297.37 406.83,299.66 L 407.22 305.82 L 400.43 306.54 C396.69,306.95 387.75,306.95 380.57,306.56 C367.51,305.85 361.46,305.78 360.38,306.32 C360.41,306.27 360.45,306.21 360.50,306.17 C360.83,305.83 369.97,305.39 380.80,305.19 C402.91,304.78 402.74,304.84 404.87,297.27 ZM 677.06 275.91 C675.48,276.07 674.15,275.75 673.33,274.93 C672.75,274.35 669.39,273.78 665.88,273.68 L 659.50 273.50 L 659.47 300.50 C659.45,315.35 659.62,328.31 659.85,329.29 C659.98,329.86 660.20,330.25 660.73,330.50 L 658.53 330.50 L 658.44 302.50 C658.39,286.22 658.74,273.98 659.30,273.25 C659.89,272.47 662.78,272.00 667.06,272.00 C672.99,272.00 673.95,272.26 674.50,274.00 C674.90,275.26 675.76,275.90 677.06,275.91 ZM 790.00 298.81 C787.88,298.02 786.86,296.58 786.72,294.88 C786.91,295.16 787.24,295.42 787.69,295.75 C788.84,296.60 793.52,297.00 802.22,297.00 C812.72,297.00 815.17,296.73 815.64,295.50 C815.90,294.82 816.00,294.12 815.97,293.40 C816.07,294.76 815.67,296.07 814.75,297.33 C813.73,298.73 811.55,299.08 802.68,299.27 C796.74,299.40 791.03,299.19 790.00,298.81 ZM 516.00 300.43 L 516.00 276.72 C516.10,277.53 516.45,278.47 517.03,279.56 C517.82,281.03 517.97,282.87 517.45,284.68 C515.98,289.80 516.83,325.68 518.54,330.80 C518.85,331.73 520.87,332.01 525.74,331.80 L 532.50 331.50 L 525.86 331.79 C525.39,331.81 524.93,331.84 524.50,331.86 C521.79,332.00 519.95,332.10 518.69,331.28 C515.98,329.53 515.98,323.58 516.00,304.83 C516.00,303.43 516.00,301.97 516.00,300.43 ZM 336.54 319.05 C336.61,318.50 336.19,318.13 335.45,317.59 C334.39,316.81 333.17,316.40 332.74,316.66 C332.30,316.93 332.07,316.57 332.23,315.87 C332.41,315.03 331.15,314.53 328.50,314.40 C325.43,314.24 323.88,314.78 321.83,316.71 C319.54,318.86 318.66,319.16 313.08,318.92 C316.07,318.68 318.30,317.54 321.47,315.02 C323.56,313.36 326.45,312.00 327.89,312.00 C331.34,312.01 337.00,315.53 337.00,317.67 C337.00,318.05 336.83,318.52 336.54,319.05 ZM 832.50 544.49 C832.50,517.28 832.49,498.67 832.42,485.62 C832.55,498.61 832.63,516.95 832.74,543.40 C832.93,590.65 832.74,629.57 832.30,629.90 C832.24,629.94 831.94,629.98 831.41,630.01 C832.36,627.25 832.50,611.52 832.50,544.49 ZM 535.03 251.96 C534.79,250.50 533.72,249.60 531.85,249.85 C531.49,249.90 530.59,249.19 529.85,248.28 C528.67,246.84 528.73,246.71 530.30,247.30 C531.29,247.67 531.89,247.64 531.63,247.22 C531.38,246.80 528.09,246.47 524.34,246.48 C520.45,246.49 518.77,246.51 517.70,247.17 C519.65,245.31 522.19,244.00 524.28,244.00 C527.80,244.00 533.64,246.63 534.38,248.54 C534.81,249.68 535.03,250.82 535.03,251.96 ZM 747.56 273.51 L 735.08 273.65 C726.37,273.75 723.40,273.84 721.39,274.72 C725.00,272.30 727.66,272.00 735.99,272.00 L 746.01 272.00 ZM 601.51 272.00 L 604.56 279.78 L 601.62 272.76 L 595.18 273.27 C591.64,273.56 588.40,274.34 587.99,275.02 C587.57,275.70 586.68,275.92 586.01,275.51 C585.12,274.95 585.05,275.25 585.74,276.63 C586.26,277.66 587.69,280.75 588.92,283.50 C589.20,284.15 589.50,284.81 589.80,285.46 C589.36,284.58 588.91,283.74 588.49,283.00 C583.81,274.78 583.51,273.92 585.04,272.96 C585.84,272.45 589.88,272.02 594.01,272.02 ZM 387.42 273.34 C383.95,272.46 379.95,272.02 375.43,272.01 C373.65,272.01 371.96,272.08 370.37,272.22 C365.85,272.64 362.06,273.65 358.81,275.37 C362.07,273.64 365.86,272.63 370.37,272.22 C371.99,272.07 373.71,272.00 375.53,272.00 C380.87,272.00 385.03,272.50 387.42,273.34 C391.12,274.27 394.24,275.71 396.77,277.64 C399.07,279.39 401.35,282.68 403.16,286.51 C400.66,281.97 396.42,278.50 393.28,278.63 C392.05,278.68 391.29,278.34 391.59,277.86 C391.88,277.39 391.43,277.00 390.59,277.00 C389.70,277.00 389.28,276.42 389.59,275.62 C389.94,274.72 389.14,273.94 387.42,273.34 ZM 487.60 270.66 C487.11,269.59 487.00,267.98 487.00,264.98 C487.00,261.69 486.55,258.98 486.00,258.94 C485.45,258.91 481.96,258.86 478.25,258.83 L 471.50 258.77 L 471.00 265.63 L 470.50 272.50 L 466.50 273.37 C464.30,273.85 461.94,274.39 461.25,274.59 C461.17,274.61 461.09,274.65 461.02,274.70 C462.04,273.34 463.89,272.54 466.80,272.07 L 470.50 271.48 L 471.00 264.99 L 471.50 258.50 L 477.92 257.71 C481.45,257.27 484.94,257.15 485.67,257.43 C486.59,257.78 487.00,259.96 487.00,264.45 C487.00,267.82 487.10,269.53 487.60,270.66 ZM 584.41 249.44 L 580.00 249.19 C568.51,248.54 564.42,248.88 561.08,251.04 C562.75,249.82 564.33,249.00 565.29,249.00 C566.16,249.00 567.16,248.55 567.50,248.00 C568.46,246.45 578.33,246.82 582.50,248.56 C583.29,248.90 583.92,249.17 584.41,249.44 ZM 533.01 274.15 L 527.74 273.49 C520.15,272.54 516.38,273.22 516.00,275.78 L 516.00 272.00 L 533.03 272.00 ZM 291.11 326.73 C286.60,323.72 282.82,319.69 280.64,315.36 C279.18,312.45 278.30,309.02 278.01,305.36 C278.05,305.69 278.09,306.02 278.14,306.35 C278.98,311.70 281.52,316.41 283.06,315.46 C283.44,315.23 284.03,316.26 284.36,317.77 C284.91,320.23 288.01,324.23 291.11,326.73 ZM 501.90 275.65 C501.85,275.17 501.73,274.81 501.50,274.54 C500.85,273.79 499.33,273.80 495.99,273.81 C495.68,273.81 495.35,273.81 495.00,273.81 C494.21,273.81 493.31,273.70 492.43,273.52 C493.03,273.48 493.67,273.32 494.43,273.03 C495.92,272.46 498.25,272.00 499.61,272.00 C501.62,272.00 502.00,272.13 501.90,275.65 ZM 581.50 274.20 L 578.76 274.20 C576.92,274.20 573.75,273.50 571.71,272.65 C571.35,272.50 571.02,272.36 570.72,272.22 C572.11,272.72 574.07,272.88 576.68,272.75 L 581.50 272.50 ZM 626.20 293.13 C626.08,293.69 626.00,294.34 626.00,294.99 C626.00,296.57 625.33,298.53 624.50,299.36 C624.06,299.80 623.66,300.53 623.39,301.33 C623.81,298.80 624.92,295.42 625.97,293.55 C626.05,293.41 626.13,293.27 626.20,293.13 ZM 562.07 451.93 C565.10,456.55 567.45,461.81 568.99,467.59 C569.38,469.09 569.74,470.49 570.05,471.95 C568.04,463.98 565.42,457.37 562.07,451.93 ZM 571.92 490.15 C572.42,501.97 572.62,521.10 572.91,556.00 C572.68,527.74 572.31,503.95 571.92,490.15 ZM 810.00 285.47 C808.00,284.31 805.66,283.50 803.21,283.28 C798.66,282.88 793.87,284.55 790.64,287.36 C792.73,285.50 795.54,284.00 798.75,283.39 C802.84,282.62 806.68,283.34 810.00,285.47 ZM 584.60 257.84 C585.00,256.35 585.31,254.43 585.37,253.00 L 585.47 250.24 C586.02,250.91 585.97,251.75 585.71,253.31 C585.49,254.61 585.05,256.40 584.60,257.84 ZM 92.52 377.54 C93.82,380.79 95.71,381.98 99.72,383.09 C95.59,382.14 93.91,381.65 92.52,377.54 ZM 301.17 316.13 C297.17,313.68 295.08,309.45 294.31,302.95 C295.03,309.05 297.37,313.51 301.17,316.13 ZM 306.98 331.81 C303.82,331.66 300.94,331.27 299.00,330.63 C298.11,330.33 297.23,330.00 296.37,329.62 C299.45,330.75 303.16,331.49 306.98,331.81 ZM 509.43 431.87 C517.12,430.59 524.80,430.67 532.57,432.08 C536.10,432.73 539.48,433.78 542.67,435.21 C533.03,431.12 521.24,429.99 509.43,431.87 ZM 831.31 453.92 C831.03,452.09 830.70,450.59 830.29,448.77 C828.05,438.95 824.95,429.94 820.97,421.75 C824.89,429.80 827.98,438.65 830.22,448.26 C830.67,450.17 831.02,451.78 831.31,453.92 ZM 469.17 450.94 C471.54,449.09 473.72,447.48 475.50,446.28 C478.20,444.45 480.89,442.80 483.56,441.30 C478.88,443.99 474.05,447.22 469.17,450.94 ZM 757.49 290.38 C757.90,294.83 757.90,301.10 757.77,310.68 C757.88,302.08 757.77,294.90 757.49,290.38 ZM 628.00 288.91 C628.00,288.34 629.12,285.41 630.50,282.41 C629.12,285.41 628.00,288.55 628.00,289.38 C628.00,290.18 627.58,291.10 627.05,291.47 C627.62,290.27 628.00,289.27 628.00,288.91 ZM 623.00 303.69 C622.93,305.49 622.14,307.46 621.07,308.89 C621.86,307.65 622.54,305.89 623.00,303.69 ZM 106.81 384.80 C107.14,384.87 107.48,384.95 107.83,385.04 C112.83,386.23 123.29,388.81 134.67,391.66 C123.26,388.84 113.01,386.31 106.81,384.80 ZM 600.27 382.44 C602.56,383.81 604.72,385.21 606.62,386.56 C607.88,387.46 609.49,388.71 611.21,390.11 C607.71,387.32 604.12,384.80 600.27,382.44 ZM 593.00 293.12 C593.00,292.69 592.50,291.33 591.77,289.65 C591.89,289.89 591.99,290.09 592.07,290.24 C592.58,291.19 593.00,292.41 593.00,292.95 C593.00,293.49 595.25,298.64 598.00,304.40 C595.25,298.64 593.00,293.57 593.00,293.12 ZM 514.63 255.46 C514.80,255.96 515.02,256.52 515.31,257.20 C515.67,258.06 516.03,258.76 516.44,259.35 C515.53,258.24 514.90,256.89 514.63,255.46 ZM 516.47 248.50 C516.22,248.91 515.95,249.41 515.63,250.00 C515.26,250.69 514.97,251.26 514.75,251.76 C514.83,251.45 514.94,251.15 515.06,250.84 C515.40,250.04 515.88,249.25 516.47,248.50 ZM 756.04 283.54 C755.38,282.22 754.48,280.77 753.52,279.47 C754.59,280.75 755.42,282.01 756.04,283.54 ZM 88.40 357.10 C88.61,358.22 88.82,359.41 89.01,360.50 C89.28,362.05 89.52,363.48 89.75,364.81 C89.48,363.34 89.19,361.74 88.87,360.00 C88.72,359.19 88.56,358.20 88.40,357.10 ZM 617.90 311.00 C616.72,310.96 615.76,309.73 614.98,307.25 C614.84,306.77 614.66,306.23 614.46,305.63 C614.71,306.34 614.90,306.90 615.01,307.25 C615.73,309.62 616.78,310.82 617.90,311.00 ZM 556.02 255.82 C554.90,257.33 554.09,258.94 553.60,260.65 C553.93,259.40 554.39,258.23 554.92,257.37 C555.22,256.86 555.60,256.34 556.02,255.82 ZM 460.14 276.78 C459.92,278.26 460.04,280.19 460.50,281.54 C460.15,280.74 460.00,279.71 460.00,278.42 C460.00,277.82 460.05,277.28 460.14,276.78 ZM 361.67 310.81 C362.88,312.84 364.58,314.99 366.01,316.01 C364.46,314.90 362.81,312.81 361.67,310.81 ZM 789.13 288.90 C788.58,289.56 788.12,290.26 787.75,291.00 C787.49,291.52 787.27,291.96 787.09,292.34 C787.49,291.19 788.19,290.01 789.13,288.90 ZM 569.05 271.19 C568.23,270.48 568.00,269.64 568.00,268.27 L 568.00 268.23 C568.01,269.49 568.34,270.47 569.05,271.19 ZM 462.43 283.45 C463.42,283.78 464.79,284.00 466.08,284.00 C464.54,284.00 463.34,283.83 462.43,283.45 ZM 332.66 323.55 C333.14,323.09 333.57,322.67 333.95,322.29 C333.55,322.71 333.11,323.13 332.66,323.55 Z" fill="rgb(91,67,45)"/>
<path d="M 434.17 313.75 C434.47,297.98 434.69,296.19 436.73,292.92 C438.43,290.18 440.41,288.50 443.52,287.41 C440.31,288.65 437.91,290.60 437.45,292.69 C437.11,294.23 436.54,296.17 436.18,297.00 C435.82,297.83 435.30,305.92 435.02,315.00 L 434.50 331.50 L 426.91 331.79 C421.58,331.99 419.02,331.69 418.36,330.79 C416.97,328.92 416.63,275.55 417.99,273.01 C418.90,271.33 420.08,271.00 425.30,271.00 C430.70,271.00 431.76,271.32 433.32,273.39 C435.30,276.03 437.30,275.92 442.50,272.89 C444.15,271.93 447.21,270.83 449.31,270.45 C452.45,269.88 453.52,270.14 455.48,271.98 C457.01,273.42 458.32,273.91 459.18,273.37 C459.90,272.91 462.75,272.30 465.50,272.02 L 470.07 271.54 L 466.80 272.07 C463.89,272.54 462.04,273.34 461.02,274.70 C460.58,275.00 460.29,275.79 460.14,276.78 C460.05,277.28 460.00,277.82 460.00,278.42 C460.00,279.71 460.15,280.74 460.50,281.54 C460.68,282.07 460.91,282.51 461.20,282.80 C461.44,283.04 461.88,283.26 462.43,283.45 C463.34,283.83 464.54,284.00 466.08,284.00 C470.82,284.00 470.97,284.58 470.99,303.19 C470.99,311.89 471.41,318.13 472.00,318.50 C472.55,318.84 473.00,320.18 473.00,321.47 C473.00,323.03 474.52,325.27 476.67,327.25 C474.58,325.48 473.00,323.56 473.00,322.47 C473.00,321.78 472.33,320.95 471.50,320.64 C470.26,320.16 470.00,317.41 470.00,304.47 C470.00,295.63 469.55,288.03 468.96,286.93 C468.29,285.68 466.87,285.00 464.90,285.00 C463.23,285.00 460.92,284.49 459.76,283.87 C458.07,282.97 457.42,283.07 456.47,284.37 C455.69,285.44 453.77,286.01 450.89,286.02 C450.68,286.02 450.48,286.03 450.27,286.03 L 454.50 285.50 L 454.80 278.63 L 455.10 271.76 L 450.59 272.43 C446.20,273.09 440.50,275.39 439.59,276.86 C439.34,277.26 437.87,277.57 436.32,277.55 C434.17,277.51 433.42,276.96 433.18,275.25 C432.88,273.16 432.36,273.00 425.93,273.00 L 419.00 273.00 L 419.00 301.33 C419.00,316.92 419.30,329.97 419.67,330.33 C420.03,330.70 423.37,331.00 427.08,331.00 L 433.83 331.00 ZM 675.00 312.50 L 674.50 331.50 L 666.91 331.79 C661.23,332.01 659.01,331.71 658.11,330.63 C656.21,328.34 656.75,274.39 658.70,272.45 C660.75,270.40 671.35,270.49 673.43,272.57 L 673.45 272.59 C672.51,272.10 670.74,272.00 667.06,272.00 C662.78,272.00 659.89,272.47 659.30,273.25 C658.74,273.98 658.39,286.22 658.44,302.50 L 658.53 330.50 L 660.73 330.50 C661.64,330.93 663.48,330.95 667.38,330.79 L 674.50 330.50 L 675.00 312.00 C675.30,300.98 675.68,294.92 676.83,291.36 C675.68,294.96 675.30,301.15 675.00,312.50 ZM 601.51 272.00 L 594.01 272.02 C589.88,272.02 585.84,272.45 585.04,272.96 C583.51,273.92 583.81,274.78 588.49,283.00 C588.91,283.74 589.36,284.58 589.80,285.46 C590.56,287.13 591.31,288.71 591.77,289.65 C591.97,290.10 592.15,290.53 592.31,290.93 C591.22,288.53 589.06,285.09 587.34,283.23 C585.30,281.03 584.72,280.83 583.95,282.04 C583.45,282.84 583.02,283.84 583.02,284.25 C583.01,284.66 579.62,285.00 575.49,285.00 L 570.08 285.00 L 574.74 284.80 L 581.50 284.50 L 581.80 279.35 L 582.10 274.20 L 581.50 274.20 L 581.50 272.50 L 576.68 272.75 C574.07,272.88 572.11,272.72 570.72,272.22 C570.46,272.09 570.23,271.97 570.02,271.85 C572.25,272.16 578.77,272.30 586.00,272.15 L 601.50 271.84 L 604.91 280.60 C604.84,280.44 604.77,280.29 604.71,280.13 L 604.56 279.78 ZM 830.95 290.08 C832.92,294.78 834.14,299.91 833.81,303.31 C833.52,306.34 833.29,306.49 829.50,306.39 C814.99,306.00 793.95,305.95 788.55,306.25 C791.74,306.01 800.30,305.79 810.13,305.70 L 832.50 305.50 L 832.15 298.50 C831.98,295.14 831.62,292.43 830.95,290.08 ZM 744.53 272.00 L 735.99 272.00 C729.70,272.00 726.64,272.17 723.97,273.30 C724.37,273.02 724.80,272.68 725.20,272.32 C726.61,271.04 728.96,270.63 734.87,270.63 C738.94,270.63 741.93,270.99 744.53,272.00 ZM 623.00 303.69 C622.54,305.89 621.86,307.65 621.07,308.89 C620.14,310.15 619.00,311.00 617.96,311.00 C617.94,311.00 617.92,311.00 617.90,311.00 C616.78,310.82 615.73,309.62 615.01,307.25 C614.90,306.90 614.71,306.35 614.46,305.63 L 614.46 305.63 C613.89,303.95 613.14,301.82 612.27,299.46 C615.74,308.16 616.35,309.00 617.30,309.00 C619.22,309.00 622.76,304.10 623.43,300.51 C623.74,298.89 624.56,296.51 625.42,294.65 C624.56,296.57 623.73,299.24 623.39,301.33 C623.15,302.04 623.00,302.80 623.00,303.46 C623.00,303.54 623.00,303.62 623.00,303.69 ZM 484.92 331.43 C491.24,332.30 502.59,331.65 504.50,329.93 C502.42,331.84 491.27,332.49 484.92,331.43 ZM 756.04 283.54 C755.42,282.01 754.59,280.75 753.52,279.47 C753.02,278.81 752.50,278.18 752.00,277.64 L 750.22 275.74 C751.08,276.55 751.96,277.47 752.89,278.53 C754.36,280.20 755.42,281.74 756.17,283.81 C756.13,283.72 756.08,283.63 756.04,283.54 ZM 572.56 261.13 C574.59,260.29 577.15,260.18 579.95,260.99 C577.37,260.25 574.67,260.34 572.56,261.13 ZM 722.56 274.00 C722.17,274.22 721.79,274.46 721.39,274.72 C720.95,274.92 720.56,275.15 720.16,275.43 C721.28,274.60 722.24,274.01 722.56,274.00 ZM 568.12 269.42 C568.04,269.05 568.00,268.66 568.00,268.23 C568.01,266.99 568.24,265.86 568.67,264.88 C568.11,266.35 567.92,268.05 568.12,269.42 ZM 674.42 273.78 C674.74,274.25 674.95,274.68 674.99,274.98 C674.79,274.71 674.62,274.38 674.50,274.00 C674.48,273.92 674.45,273.85 674.42,273.78 ZM 817.08 274.57 C813.02,272.71 808.20,272.02 801.31,272.01 C808.24,272.02 813.04,272.69 817.08,274.57 ZM 705.19 331.81 C706.26,331.85 707.50,331.85 708.84,331.79 L 715.50 331.50 L 709.10 331.80 C707.71,331.87 706.35,331.86 705.19,331.81 ZM 787.25 306.42 C786.57,307.15 787.21,309.18 788.42,311.25 C787.19,309.16 786.55,307.12 787.24,306.43 C787.24,306.43 787.24,306.42 787.25,306.42 Z" fill="rgb(174,157,143)"/>
<path d="M 0.00 427.00 L 0.00 0.00 L 427.00 0.00 L 854.00 0.00 L 854.00 427.00 L 854.00 854.00 L 427.00 854.00 L 0.00 854.00 L 0.00 427.00 ZM 253.50 632.90 C295.98,627.45 328.20,608.25 368.40,564.44 C376.47,555.65 406.45,519.72 425.50,496.03 C427.15,493.97 430.46,489.87 432.85,486.90 C453.87,460.80 478.56,441.05 498.23,434.59 C514.26,429.32 531.58,429.86 544.50,436.03 C558.59,442.76 566.87,455.57 571.30,477.50 C571.89,480.42 572.56,513.03 572.91,556.00 L 573.50 629.50 L 611.21 629.76 L 648.92 630.02 L 649.23 555.26 C649.55,481.66 649.59,480.38 651.76,472.65 C654.56,462.69 660.22,452.14 666.00,446.12 C677.59,434.03 697.92,428.49 717.57,432.08 C731.20,434.57 743.74,443.95 749.64,456.06 C754.59,466.23 754.86,467.22 756.50,481.24 C757.77,492.09 758.04,506.74 757.95,562.00 L 757.84 629.50 L 794.67 630.00 C814.93,630.28 831.86,630.23 832.30,629.90 C832.74,629.57 832.93,590.65 832.74,543.40 C832.39,459.61 832.33,457.27 830.22,448.26 C825.13,426.43 815.65,408.50 802.05,395.00 C793.98,386.98 792.25,385.57 786.92,382.60 C785.04,381.56 780.95,379.24 777.82,377.45 C774.70,375.66 770.77,373.89 769.08,373.52 C767.40,373.15 765.77,372.43 765.45,371.92 C765.14,371.42 764.00,371.00 762.93,371.00 C761.85,371.00 760.19,370.57 759.24,370.04 C754.58,367.46 735.47,364.68 722.00,364.62 C691.27,364.47 665.01,373.59 639.61,393.23 C637.35,394.98 633.88,398.12 631.90,400.21 C629.93,402.29 627.90,404.00 627.40,403.99 C626.91,403.99 623.40,401.04 619.62,397.45 C615.84,393.86 609.99,388.95 606.62,386.56 C597.30,379.92 581.53,372.14 575.88,371.39 C573.17,371.03 570.71,370.35 570.42,369.87 C570.12,369.39 568.42,369.00 566.64,369.00 C564.86,369.00 562.87,368.47 562.23,367.83 C560.47,366.07 515.56,365.39 506.50,366.99 C502.65,367.67 497.70,368.45 495.50,368.72 C493.30,369.00 491.05,369.57 490.50,370.00 C489.95,370.43 487.48,371.10 485.00,371.51 C482.52,371.91 478.70,373.03 476.50,374.00 C474.30,374.96 470.25,376.56 467.50,377.54 C460.58,380.01 445.56,387.87 439.26,392.31 C436.38,394.34 433.79,396.00 433.50,396.00 C429.98,396.00 394.63,427.46 385.62,438.60 C383.35,441.41 378.35,447.30 374.50,451.69 C370.65,456.09 365.70,462.06 363.50,464.97 C361.30,467.88 356.58,473.77 353.00,478.05 C349.42,482.33 344.25,488.61 341.50,492.01 C307.45,534.06 284.29,555.22 264.50,562.35 C261.75,563.34 258.60,564.52 257.50,564.96 C254.29,566.24 246.00,567.90 239.22,568.61 C233.18,569.24 214.38,566.96 209.50,565.00 C196.86,559.93 185.22,551.17 179.04,542.06 C173.43,533.80 169.17,524.26 167.27,515.70 C164.94,505.20 165.23,486.67 167.87,476.70 C173.12,456.93 186.85,440.41 204.94,432.09 C214.43,427.72 222.24,426.07 233.50,426.05 C250.61,426.02 264.11,430.72 277.66,441.42 C283.80,446.28 285.99,448.66 293.11,458.25 C294.23,459.76 295.47,461.00 295.86,461.00 C296.26,461.00 302.87,456.97 310.54,452.04 C318.22,447.11 330.05,439.58 336.83,435.29 C343.61,431.01 350.12,426.76 351.30,425.86 L 353.44 424.22 L 348.64 417.01 C339.75,403.64 321.80,387.03 309.50,380.79 C307.85,379.96 305.15,378.54 303.50,377.64 C301.85,376.75 299.94,376.01 299.25,376.01 C298.56,376.00 298.00,375.55 298.00,375.00 C298.00,374.45 297.13,374.00 296.06,374.00 C294.99,374.00 293.84,373.55 293.50,373.00 C293.16,372.45 292.19,372.00 291.34,372.00 C290.50,372.00 288.38,371.38 286.65,370.62 C280.81,368.05 277.53,367.04 271.50,365.96 C268.20,365.37 263.02,364.43 260.00,363.88 C256.98,363.33 252.14,362.64 249.25,362.35 C244.25,361.84 243.85,361.98 241.12,365.16 C239.54,367.00 235.83,371.30 232.87,374.71 C208.42,402.99 203.01,409.34 199.53,413.85 C194.36,420.53 190.96,422.16 185.00,420.84 C182.52,420.29 178.70,419.60 176.50,419.31 C174.30,419.01 172.05,418.42 171.50,417.98 C170.95,417.54 168.70,416.88 166.50,416.52 C164.30,416.15 161.60,415.50 160.50,415.07 C155.92,413.26 151.17,412.09 145.74,411.45 C142.57,411.07 139.73,410.37 139.43,409.88 C139.13,409.40 137.87,409.00 136.64,409.00 C135.41,409.00 133.94,408.54 133.37,407.97 C132.81,407.41 130.13,406.69 127.42,406.37 C121.48,405.68 121.14,405.99 111.52,420.50 C101.51,435.58 95.75,448.30 91.37,464.92 C85.89,485.67 86.67,521.66 92.93,537.50 C93.36,538.60 94.55,542.20 95.56,545.50 C96.58,548.80 97.75,552.17 98.16,553.00 C98.58,553.83 100.24,557.27 101.86,560.65 C113.61,585.23 136.45,607.21 163.50,619.97 C190.06,632.49 221.51,637.01 253.50,632.90 ZM 464.00 556.50 C464.00,516.08 464.00,482.66 464.00,482.25 C464.00,480.14 461.17,482.06 457.56,486.63 C454.09,491.00 448.01,498.40 429.75,520.42 C427.96,522.57 423.24,528.42 419.25,533.42 C410.34,544.57 403.28,553.18 395.78,562.00 C392.63,565.70 389.59,569.95 389.03,571.43 C387.89,574.41 387.56,628.23 388.67,629.33 C389.03,629.70 406.13,630.00 426.67,630.00 L 464.00 630.00 L 464.00 556.50 ZM 54.89 540.09 C56.39,539.14 55.82,530.74 52.47,504.50 C50.60,489.88 49.51,480.27 47.92,464.32 L 46.71 452.14 L 49.27 449.09 C54.44,442.94 53.48,436.21 46.50,429.82 L 42.81 426.44 L 42.83 383.47 C42.83,359.84 42.87,339.94 42.92,339.25 C42.98,338.29 47.89,338.00 63.88,338.00 C79.36,338.00 85.02,338.32 85.79,339.25 C86.36,339.94 87.05,343.65 87.34,347.50 C87.62,351.35 88.31,356.98 88.87,360.00 C93.05,382.62 92.37,381.34 101.32,383.46 C105.27,384.40 125.60,389.41 146.50,394.59 C177.31,402.24 184.69,403.77 185.50,402.69 C186.05,401.96 199.77,386.17 216.00,367.61 C232.23,349.04 246.11,332.70 246.86,331.29 C248.54,328.10 247.88,323.57 244.49,314.99 C241.61,307.73 241.82,308.20 235.52,294.66 L 230.94 284.82 L 234.72 281.55 C236.80,279.75 248.85,269.65 261.50,259.10 C274.15,248.55 284.63,239.54 284.80,239.07 C285.18,237.98 268.64,238.77 264.00,240.06 C262.08,240.60 255.55,241.49 249.50,242.03 C243.45,242.58 235.35,243.48 231.50,244.03 C227.65,244.58 220.00,245.48 214.50,246.03 C209.00,246.58 203.20,247.47 201.60,248.01 C200.01,248.56 196.29,249.00 193.34,249.00 C190.39,249.00 187.19,249.43 186.24,249.95 C185.28,250.47 179.32,251.38 173.00,251.96 C166.68,252.54 158.35,253.47 154.50,254.03 C150.65,254.59 143.53,255.43 138.68,255.90 C133.82,256.37 129.34,257.26 128.73,257.87 C128.11,258.49 126.90,259.03 126.05,259.06 C125.20,259.09 123.07,260.10 121.33,261.31 C115.39,265.41 70.51,295.46 68.79,296.48 C66.64,297.77 31.53,321.21 27.50,324.06 C25.85,325.22 21.01,328.38 16.75,331.07 C12.49,333.77 9.00,336.43 9.00,336.99 C9.00,337.61 13.54,338.00 20.94,338.00 C28.50,338.00 33.13,338.40 33.56,339.09 C33.93,339.69 34.16,359.83 34.07,383.84 L 33.90 427.50 L 29.50 432.00 C23.49,438.13 22.68,442.87 26.67,448.50 C29.36,452.30 29.49,452.96 29.20,461.90 C29.04,467.07 28.48,472.10 27.95,473.08 C27.43,474.07 27.00,477.21 27.00,480.07 C27.00,482.93 26.54,486.90 25.99,488.88 C25.43,490.87 24.54,497.45 24.01,503.50 C22.91,516.23 21.60,526.48 20.21,533.30 C18.70,540.76 19.24,541.00 37.82,540.98 C46.44,540.98 54.13,540.57 54.89,540.09 ZM 610.78 351.60 C617.80,347.92 621.75,341.65 630.34,320.50 C633.92,311.70 639.58,297.84 642.92,289.70 C646.26,281.56 649.00,274.24 649.00,273.45 C649.00,271.26 637.28,271.44 634.83,273.65 C633.82,274.57 633.00,275.68 633.00,276.13 C633.00,276.57 631.88,279.40 630.50,282.41 C629.12,285.41 628.00,288.34 628.00,288.91 C628.00,289.47 627.13,291.49 626.06,293.39 C624.99,295.29 623.81,298.50 623.43,300.51 C622.76,304.10 619.22,309.00 617.30,309.00 C616.04,309.00 615.37,307.52 607.85,288.17 L 601.50 271.84 L 586.00 272.15 C577.47,272.32 569.94,272.11 569.25,271.67 C567.55,270.60 567.67,265.91 569.46,263.35 C571.26,260.80 575.75,259.78 579.95,260.99 C582.81,261.81 583.19,261.64 584.13,259.19 C584.71,257.71 585.42,255.07 585.71,253.31 C586.20,250.39 585.93,250.00 582.50,248.56 C578.33,246.82 568.46,246.45 567.50,248.00 C567.16,248.55 566.16,249.00 565.29,249.00 C562.98,249.00 557.15,253.71 554.92,257.37 C553.80,259.20 553.01,262.33 553.00,264.92 C553.00,270.44 550.88,273.00 546.31,273.00 C542.25,273.00 541.56,274.36 542.70,280.17 C543.49,284.18 543.80,284.52 547.02,284.83 C553.27,285.43 553.23,285.25 552.87,308.45 C552.69,320.03 552.90,330.06 553.33,330.75 C554.28,332.26 566.58,332.49 567.49,331.01 C567.83,330.47 568.07,319.89 568.04,307.51 L 567.98 285.00 L 575.49 285.00 C579.62,285.00 583.01,284.66 583.02,284.25 C583.02,283.84 583.45,282.84 583.95,282.04 C584.72,280.83 585.30,281.03 587.34,283.23 C589.75,285.83 593.00,291.51 593.00,293.12 C593.00,293.57 595.25,298.64 598.00,304.40 C600.75,310.16 603.00,315.20 603.00,315.59 C603.00,315.98 604.20,318.83 605.66,321.90 C607.12,324.98 608.52,329.57 608.77,332.09 C609.17,336.17 608.92,336.92 606.48,338.84 C603.59,341.11 596.64,341.84 595.50,340.00 C595.16,339.45 593.63,339.00 592.09,339.00 C589.82,339.00 588.98,339.72 587.56,342.88 C585.00,348.54 585.71,350.22 591.50,352.27 C597.19,354.28 606.26,353.96 610.78,351.60 ZM 322.48 330.35 C327.77,328.55 337.00,320.49 337.00,317.67 C337.00,315.53 331.34,312.01 327.89,312.00 C326.45,312.00 323.56,313.36 321.47,315.02 C316.91,318.65 314.29,319.41 308.53,318.76 C300.37,317.84 295.42,312.34 294.31,302.95 C293.52,296.34 296.02,289.76 300.32,287.13 C307.18,282.92 317.59,283.81 323.52,289.11 C325.49,290.87 325.71,290.85 330.83,288.40 C333.74,287.01 336.37,285.20 336.68,284.39 C337.21,283.00 331.69,277.00 329.89,277.00 C329.48,277.00 328.55,276.41 327.82,275.68 C325.30,273.17 319.65,272.00 310.10,272.01 C301.44,272.02 299.92,272.32 294.63,275.00 C288.38,278.17 282.50,283.65 280.78,287.91 C276.99,297.30 276.93,307.98 280.64,315.36 C284.01,322.06 291.20,328.04 299.00,330.63 C304.34,332.40 316.90,332.25 322.48,330.35 ZM 389.63 330.52 C392.38,329.70 396.36,327.53 398.48,325.70 L 402.33 322.38 L 398.67 318.61 C395.45,315.29 394.62,314.92 391.76,315.52 C389.96,315.89 387.42,316.88 386.10,317.72 C382.41,320.06 370.25,319.02 366.01,316.01 C363.16,313.98 359.24,307.43 360.26,306.41 C360.90,305.77 366.88,305.82 380.57,306.56 C387.75,306.95 396.69,306.95 400.43,306.54 L 407.22 305.82 L 406.83 299.66 C406.31,291.68 401.57,281.30 396.77,277.64 C391.86,273.89 384.77,272.02 375.43,272.01 C361.02,271.99 353.04,276.60 347.05,288.40 C344.29,293.85 343.73,296.02 343.80,301.14 C343.98,313.60 350.42,323.76 361.50,329.04 C366.62,331.49 368.76,331.91 376.07,331.95 C380.87,331.98 386.83,331.35 389.63,330.52 ZM 435.02 315.00 C435.30,305.92 435.82,297.83 436.18,297.00 C436.54,296.17 437.11,294.23 437.45,292.69 C438.22,289.17 444.51,286.05 450.89,286.02 C453.77,286.01 455.69,285.44 456.47,284.37 C457.42,283.07 458.07,282.97 459.76,283.87 C460.92,284.49 463.23,285.00 464.90,285.00 C466.87,285.00 468.29,285.68 468.96,286.93 C469.55,288.03 470.00,295.63 470.00,304.47 C470.00,317.41 470.26,320.16 471.50,320.64 C472.33,320.95 473.00,321.78 473.00,322.47 C473.00,324.40 478.01,328.98 481.96,330.65 C486.83,332.71 502.25,332.19 504.55,329.88 C506.00,328.42 506.02,327.83 504.69,323.88 L 503.21 319.50 L 497.22 319.21 C487.97,318.75 487.57,317.98 487.18,299.94 L 486.86 285.09 L 494.18 284.80 L 501.50 284.50 L 501.80 278.25 C502.09,272.18 502.02,272.00 499.61,272.00 C498.25,272.00 495.92,272.46 494.43,273.03 C492.35,273.82 491.19,273.70 489.37,272.50 C487.28,271.14 487.00,270.19 487.00,264.45 C487.00,259.96 486.59,257.78 485.67,257.43 C484.94,257.15 481.45,257.27 477.92,257.71 L 471.50 258.50 L 471.00 265.00 L 470.50 271.50 L 465.50 272.02 C462.75,272.30 459.90,272.91 459.18,273.37 C458.32,273.91 457.01,273.42 455.48,271.98 C453.52,270.14 452.45,269.88 449.31,270.45 C447.21,270.83 444.15,271.93 442.50,272.89 C437.30,275.92 435.30,276.03 433.32,273.39 C431.76,271.32 430.70,271.00 425.30,271.00 C420.08,271.00 418.90,271.33 417.99,273.01 C416.63,275.55 416.97,328.92 418.36,330.79 C419.02,331.69 421.58,331.99 426.91,331.79 L 434.50 331.50 L 435.02 315.00 ZM 532.76 301.75 L 533.03 272.00 L 524.51 272.00 L 516.00 272.00 L 516.00 300.43 C516.00,333.84 515.50,332.25 525.86,331.79 L 532.50 331.50 L 532.76 301.75 ZM 675.00 312.50 C675.56,291.20 676.40,288.10 682.12,286.11 C689.29,283.61 695.51,285.20 698.52,290.31 C700.12,293.01 700.41,296.02 700.63,311.87 C700.77,322.00 701.29,330.69 701.79,331.19 C702.29,331.69 705.58,331.97 709.10,331.80 L 715.50 331.50 L 716.27 313.00 C717.15,291.95 718.02,288.72 723.48,286.44 C731.65,283.03 739.04,285.72 740.95,292.80 C741.49,294.84 742.05,304.06 742.19,313.31 C742.35,324.87 742.80,330.42 743.63,331.11 C744.29,331.65 747.68,331.96 751.16,331.80 L 757.50 331.50 L 757.77 310.68 C758.07,287.65 757.48,283.75 752.89,278.53 C747.42,272.29 743.62,270.63 734.87,270.63 C728.96,270.63 726.61,271.04 725.20,272.32 C724.18,273.24 722.99,274.00 722.57,274.00 C722.14,274.00 720.45,275.12 718.82,276.50 C715.05,279.67 711.52,279.72 709.49,276.62 C705.91,271.16 689.87,269.67 682.19,274.09 C678.68,276.12 675.00,276.62 675.00,275.07 C675.00,274.56 674.29,273.44 673.43,272.57 C671.35,270.49 660.75,270.40 658.70,272.45 C656.75,274.39 656.21,328.34 658.11,330.63 C659.01,331.71 661.23,332.01 666.91,331.79 L 674.50 331.50 L 675.00 312.50 ZM 816.23 330.44 C818.75,329.58 822.54,327.37 824.65,325.53 L 828.50 322.18 L 825.56 319.09 C822.17,315.52 817.81,315.01 812.77,317.62 C808.62,319.76 797.87,319.05 793.01,316.31 C789.73,314.46 785.87,307.80 787.27,306.40 C787.72,305.95 812.90,305.94 829.50,306.39 C833.29,306.49 833.52,306.34 833.81,303.31 C834.38,297.41 830.27,286.25 825.68,281.25 C819.15,274.13 813.57,272.02 801.31,272.01 C795.58,272.00 790.85,272.44 790.50,273.00 C790.16,273.55 789.06,274.00 788.05,274.00 C785.36,274.00 776.55,282.33 773.47,287.78 C771.47,291.33 770.68,294.41 770.27,300.20 C769.78,307.14 769.99,308.45 772.38,313.35 C778.76,326.39 787.90,331.93 803.07,331.98 C808.28,331.99 813.44,331.39 816.23,330.44 ZM 527.68 262.00 C528.51,262.00 530.50,260.60 532.10,258.89 C534.93,255.86 535.76,252.13 534.38,248.54 C533.64,246.63 527.80,244.00 524.28,244.00 C520.96,244.00 516.54,247.29 515.06,250.84 C513.26,255.20 515.77,260.59 520.18,261.86 C522.01,262.39 524.10,262.63 524.83,262.41 C525.56,262.18 526.85,262.00 527.68,262.00 ZM 360.90 296.39 C359.13,294.25 361.56,288.80 365.49,286.13 C374.78,279.81 390.00,284.74 390.00,294.08 C390.00,296.70 389.58,296.79 374.75,297.27 C365.05,297.59 361.73,297.38 360.90,296.39 ZM 787.69 295.75 C786.10,294.58 786.10,294.29 787.75,291.00 C790.20,286.10 796.94,282.73 803.21,283.28 C810.92,283.96 817.56,290.49 815.64,295.50 C815.17,296.73 812.72,297.00 802.22,297.00 C793.52,297.00 788.84,296.60 787.69,295.75 Z" fill="rgb(254,254,254)"/>
</g>
</svg>