<svg xmlns="http://www.w3.org/2000/svg" width="499" height="499" viewBox="0 0 499 499">
<g>
<path d="M 406.00 320.12 C406.00,321.27 389.28,321.27 388.57,320.12 C388.27,319.63 388.52,316.59 389.13,313.37 C389.74,310.14 391.02,302.33 391.98,296.00 L 393.73 284.50 L 390.86 281.22 C386.91,276.68 386.96,272.05 391.00,268.65 L 394.00 266.13 L 394.00 217.87 L 391.75 218.55 C390.51,218.93 385.67,220.72 381.00,222.53 C376.33,224.33 363.95,229.05 353.50,233.02 C343.05,236.98 327.98,242.80 320.00,245.95 C312.02,249.10 301.00,253.40 295.50,255.51 C290.00,257.61 277.78,262.41 268.34,266.17 C258.90,269.93 250.57,273.00 249.84,272.99 C249.10,272.99 244.00,271.16 238.50,268.93 C233.00,266.70 215.68,259.89 200.00,253.80 C184.32,247.71 166.55,240.80 160.50,238.45 C154.45,236.10 134.20,228.34 115.50,221.21 C72.90,204.96 69.83,203.72 69.65,202.53 C69.46,201.27 72.61,200.11 116.00,185.46 C164.88,168.96 213.27,152.34 231.00,145.97 C248.16,139.80 251.30,139.25 256.57,141.50 C258.73,142.42 266.12,145.12 273.00,147.50 C314.79,161.98 418.24,197.20 426.30,199.70 C429.02,200.54 430.94,201.69 430.72,202.34 C430.51,202.98 423.51,206.16 415.17,209.41 L 400.00 215.31 L 400.00 265.20 L 403.00 268.00 C407.02,271.76 407.17,277.45 403.37,281.97 C401.23,284.51 400.85,285.77 401.30,288.79 C401.60,290.83 402.78,298.52 403.93,305.87 C405.07,313.22 406.00,319.63 406.00,320.12 ZM 271.50 358.49 C259.26,360.32 237.61,360.29 225.50,358.41 C213.18,356.50 198.30,352.67 187.32,348.58 C171.17,342.55 146.99,329.20 139.85,322.36 L 137.00 319.63 L 137.00 243.77 L 139.75 244.30 C142.38,244.80 145.35,245.86 163.50,252.81 C189.19,262.64 207.23,269.53 212.50,271.52 C215.80,272.77 224.57,276.15 232.00,279.03 C239.43,281.91 246.97,284.48 248.76,284.75 C250.93,285.06 254.59,284.21 259.76,282.18 C281.09,273.80 288.59,270.92 321.71,258.34 C341.40,250.86 358.74,244.52 360.25,244.26 L 363.00 243.77 L 363.00 319.65 L 360.75 321.72 C352.75,329.08 328.35,341.68 305.31,350.36 C298.30,353.00 282.06,356.90 271.50,358.49 Z" fill="rgb(15,22,30)"/>
<path d="M 0.00 249.50 L 0.00 0.00 L 249.50 0.00 L 499.00 0.00 L 499.00 249.50 L 499.00 499.00 L 249.50 499.00 L 0.00 499.00 L 0.00 249.50 ZM 271.50 358.49 C282.06,356.90 298.30,353.00 305.31,350.36 C328.35,341.68 352.75,329.08 360.75,321.72 L 363.00 319.65 L 363.00 281.71 L 363.00 243.77 L 360.25 244.26 C358.74,244.52 341.40,250.86 321.71,258.34 C288.59,270.92 281.09,273.80 259.76,282.18 C254.59,284.21 250.93,285.06 248.76,284.75 C246.97,284.48 239.43,281.91 232.00,279.03 C224.57,276.15 215.80,272.77 212.50,271.52 C207.23,269.53 189.19,262.64 163.50,252.81 C145.35,245.86 142.38,244.80 139.75,244.30 L 137.00 243.77 L 137.00 281.70 L 137.00 319.63 L 139.85 322.36 C146.99,329.20 171.17,342.55 187.32,348.58 C198.30,352.67 213.18,356.50 225.50,358.41 C237.61,360.29 259.26,360.32 271.50,358.49 ZM 406.00 320.12 C406.00,319.63 405.07,313.22 403.93,305.87 C402.78,298.52 401.60,290.83 401.30,288.79 C400.85,285.77 401.23,284.51 403.37,281.97 C407.17,277.45 407.02,271.76 403.00,268.00 L 400.00 265.20 L 400.00 240.26 L 400.00 215.31 L 415.17 209.41 C423.51,206.16 430.51,202.98 430.72,202.34 C430.94,201.69 429.02,200.54 426.30,199.70 C418.24,197.20 314.79,161.98 273.00,147.50 C266.12,145.12 258.73,142.42 256.57,141.50 C251.30,139.25 248.16,139.80 231.00,145.97 C213.27,152.34 164.88,168.96 116.00,185.46 C72.61,200.11 69.46,201.27 69.65,202.53 C69.83,203.72 72.90,204.96 115.50,221.21 C134.20,228.34 154.45,236.10 160.50,238.45 C166.55,240.80 184.32,247.71 200.00,253.80 C215.68,259.89 233.00,266.70 238.50,268.93 C244.00,271.16 249.10,272.99 249.84,272.99 C250.57,273.00 258.90,269.93 268.34,266.17 C277.78,262.41 290.00,257.61 295.50,255.51 C301.00,253.40 312.02,249.10 320.00,245.95 C327.98,242.80 343.05,236.98 353.50,233.02 C363.95,229.05 376.33,224.33 381.00,222.53 C385.67,220.72 390.51,218.93 391.75,218.55 L 394.00 217.87 L 394.00 242.00 L 394.00 266.13 L 391.00 268.65 C386.96,272.05 386.91,276.68 390.86,281.22 L 393.73 284.50 L 391.98 296.00 C391.02,302.33 389.74,310.14 389.13,313.37 C388.52,316.59 388.27,319.63 388.57,320.12 C389.28,321.27 406.00,321.27 406.00,320.12 Z" fill="rgb(254,254,254)"/>
</g>
</svg>