<svg xmlns="http://www.w3.org/2000/svg" width="358" height="358" viewBox="0 0 358 358">
<g>
<path d="M 0.00 248.50 L 0.00 67.50 C0.00,104.62 0.15,135.00 0.34,135.00 C0.53,135.00 3.34,134.06 6.59,132.91 C9.84,131.75 28.25,125.48 47.50,118.96 C114.68,96.20 161.66,80.02 174.25,75.30 C178.81,73.59 179.19,73.59 183.75,75.32 C194.33,79.34 253.10,99.70 281.00,109.00 C292.27,112.76 309.38,118.51 319.00,121.78 C344.59,130.46 352.17,133.01 355.25,133.99 L 358.00 134.86 L 358.00 138.09 L 354.25 139.46 C352.19,140.22 345.77,142.64 340.00,144.85 L 329.50 148.87 L 329.23 174.23 L 328.97 199.59 L 331.98 202.48 C335.96,206.30 336.18,211.91 332.50,215.59 C329.42,218.67 329.42,219.03 332.51,237.86 C333.89,246.28 334.76,253.57 334.45,254.08 C334.14,254.59 330.31,255.00 325.94,255.00 L 318.00 255.00 L 318.00 251.75 C318.00,249.96 318.69,244.90 319.54,240.50 C320.38,236.10 321.51,229.42 322.05,225.64 C323.01,218.85 323.00,218.76 320.01,215.36 C315.95,210.74 315.99,206.75 320.13,202.88 L 323.27 199.95 L 323.09 176.27 C323.00,163.25 322.76,152.42 322.55,152.22 C322.15,151.81 299.89,159.83 290.90,163.62 C287.82,164.92 281.07,167.51 275.90,169.38 C270.73,171.26 260.88,175.04 254.00,177.78 C247.12,180.53 236.55,184.69 230.50,187.02 C224.45,189.36 210.35,194.88 199.17,199.30 L 178.85 207.33 L 171.17 204.24 C162.77,200.85 141.44,192.50 110.50,180.49 C99.50,176.21 84.43,170.35 77.00,167.45 C69.57,164.55 53.15,158.27 40.50,153.48 C27.85,148.69 14.23,143.47 10.22,141.88 C6.22,140.30 2.28,139.00 1.47,139.00 C0.18,139.00 0.00,152.69 0.00,248.50 ZM 201.50 292.45 C194.12,293.53 165.57,293.90 159.00,292.99 C137.85,290.07 117.62,283.98 99.50,275.08 C87.00,268.95 73.47,260.64 68.75,256.21 L 66.00 253.63 L 66.00 216.37 C66.00,192.42 66.36,178.90 67.01,178.50 C67.81,178.00 93.48,187.06 102.50,191.02 C104.56,191.92 112.59,195.03 124.00,199.34 C127.57,200.69 138.38,204.81 148.00,208.49 C157.62,212.17 168.57,216.25 172.31,217.56 L 179.13 219.92 L 194.81 214.01 C203.44,210.76 218.82,204.90 229.00,200.99 C239.18,197.08 254.11,191.45 262.18,188.48 C270.25,185.51 279.67,181.93 283.10,180.54 C286.53,179.14 289.72,178.00 290.18,178.00 C290.65,178.00 290.91,195.41 290.76,216.68 L 290.50 255.37 L 283.50 260.15 C277.13,264.49 257.24,274.92 246.00,279.81 C235.44,284.40 213.09,290.75 201.50,292.45 Z" fill="rgb(16,22,30)"/>
<path d="M 0.00 248.50 C0.00,152.69 0.18,139.00 1.47,139.00 C2.28,139.00 6.22,140.30 10.22,141.88 C14.23,143.47 27.85,148.69 40.50,153.48 C53.15,158.27 69.57,164.55 77.00,167.45 C84.43,170.35 99.50,176.21 110.50,180.49 C141.44,192.50 162.77,200.85 171.17,204.24 L 178.85 207.33 L 199.17 199.30 C210.35,194.88 224.45,189.36 230.50,187.02 C236.55,184.69 247.12,180.53 254.00,177.78 C260.88,175.04 270.73,171.26 275.90,169.38 C281.07,167.51 287.82,164.92 290.90,163.62 C299.89,159.83 322.15,151.81 322.55,152.22 C322.76,152.42 323.00,163.25 323.09,176.27 L 323.27 199.95 L 320.13 202.88 C315.99,206.75 315.95,210.74 320.01,215.36 C323.00,218.76 323.01,218.85 322.05,225.64 C321.51,229.42 320.38,236.10 319.54,240.50 C318.69,244.90 318.00,249.96 318.00,251.75 L 318.00 255.00 L 325.94 255.00 C330.31,255.00 334.14,254.59 334.45,254.08 C334.76,253.57 333.89,246.28 332.51,237.86 C329.42,219.03 329.42,218.67 332.50,215.59 C336.18,211.91 335.96,206.30 331.98,202.48 L 328.97 199.59 L 329.23 174.23 L 329.50 148.87 L 340.00 144.85 C345.77,142.64 352.19,140.22 354.25,139.46 L 358.00 138.09 L 358.00 248.04 L 358.00 358.00 L 179.00 358.00 L 0.00 358.00 L 0.00 248.50 ZM 201.50 292.45 C213.09,290.75 235.44,284.40 246.00,279.81 C257.24,274.92 277.13,264.49 283.50,260.15 L 290.50 255.37 L 290.76 216.68 C290.91,195.41 290.65,178.00 290.18,178.00 C289.72,178.00 286.53,179.14 283.10,180.54 C279.67,181.93 270.25,185.51 262.18,188.48 C254.11,191.45 239.18,197.08 229.00,200.99 C218.82,204.90 203.44,210.76 194.81,214.01 L 179.13 219.92 L 172.31 217.56 C168.57,216.25 157.62,212.17 148.00,208.49 C138.38,204.81 127.57,200.69 124.00,199.34 C112.59,195.03 104.56,191.92 102.50,191.02 C93.48,187.06 67.81,178.00 67.01,178.50 C66.36,178.90 66.00,192.42 66.00,216.37 L 66.00 253.63 L 68.75 256.21 C73.47,260.64 87.00,268.95 99.50,275.08 C117.62,283.98 137.85,290.07 159.00,292.99 C165.57,293.90 194.12,293.53 201.50,292.45 ZM 0.00 67.50 L 0.00 0.00 L 179.00 0.00 L 358.00 0.00 L 358.00 67.43 L 358.00 134.86 L 355.25 133.99 C352.17,133.01 344.59,130.46 319.00,121.78 C309.38,118.51 292.27,112.76 281.00,109.00 C253.10,99.70 194.33,79.34 183.75,75.32 C179.19,73.59 178.81,73.59 174.25,75.30 C161.66,80.02 114.68,96.20 47.50,118.96 C28.25,125.48 9.84,131.75 6.59,132.91 C3.34,134.06 0.53,135.00 0.34,135.00 C0.15,135.00 0.00,104.62 0.00,67.50 Z" fill="rgb(254,254,254)"/>
</g>
</svg>